<svg width="24" height="24" viewBox="0 0 24 24" fill="none" xmlns="http://www.w3.org/2000/svg">
<g clip-path="url(#clip0_2446_244)">
<path d="M23.9693 11.1859C23.52 4.57344 17.7965 -0.421442 11.185 0.0278384C7.89217 0.252478 4.99969 1.78656 2.98177 4.08384L2.97601 4.08C2.96161 4.09824 2.94913 4.11648 2.93665 4.13568C0.932173 6.44832 -0.195826 9.52032 0.0278535 12.8141C0.0489735 13.129 0.0854536 13.4362 0.130574 13.7424C0.130574 13.7568 0.134414 13.7693 0.136334 13.7837C0.167054 13.9853 0.202574 14.1869 0.240974 14.3837C0.277454 14.5661 0.318734 14.7475 0.363854 14.928C1.75009 20.4547 6.92737 24.3686 12.8131 23.9683C19.4237 23.519 24.4205 17.7955 23.9712 11.183C23.9722 11.1821 23.9693 11.1859 23.9693 11.1859ZM21.3571 11.3645C21.4128 12.1786 21.361 12.9754 21.2151 13.7434C21.2151 13.7395 21.2112 13.7357 21.2112 13.7309C20.3395 11.6054 18.6192 10.0694 17.1072 9.2208C17.4135 5.61888 16.1914 4.0992 14.8071 3.85248C13.7203 3.648 12.6739 4.36416 12.4695 5.45088C12.4618 5.48928 12.456 5.52864 12.4512 5.568C12.3101 6.66432 13.0839 7.66848 14.1802 7.8096C14.1821 7.8096 14.1831 7.8096 14.185 7.81056C14.281 7.82304 14.376 7.82688 14.4682 7.82496C14.4749 7.9536 14.4787 8.08224 14.4787 8.21088C13.1991 7.89504 12.0039 7.83072 10.9133 7.9296C10.5034 7.95648 10.0954 8.00832 9.69121 8.0832C9.82753 6.86688 10.2845 5.49984 11.1696 4.50144C12.0259 3.53376 13.2989 2.98176 14.6871 3.12384C14.9501 3.15072 15.2314 3.216 15.4839 3.30048C15.4963 3.30432 15.5088 3.30816 15.5194 3.31008C18.7354 4.62048 21.1037 7.67424 21.3543 11.3645C21.3552 11.3645 21.3571 11.3645 21.3571 11.3645ZM12.9927 13.1971C12.9927 13.1971 12.9927 13.199 12.9907 13.201C12.6874 13.6368 12.3437 14.0438 11.9635 14.4154C11.3885 13.8077 10.9018 13.1232 10.5178 12.3802C10.4995 12.3408 10.4794 12.3062 10.4602 12.2669V12.263C10.2346 11.7821 10.0551 11.28 9.92257 10.7654C10.7751 10.5638 11.6103 10.4899 12.4099 10.5293L12.5376 10.535H12.5415C13.0426 10.5763 13.5639 10.6685 14.1043 10.8163C13.8538 11.6592 13.4803 12.4608 12.9955 13.1942C12.9946 13.1952 12.9927 13.1971 12.9927 13.1971ZM8.89345 3.14784L8.88769 3.15552C7.48129 4.97184 7.01281 7.2288 7.03297 8.9616C3.75937 10.4976 3.05665 12.3149 3.53377 13.6378C3.54529 13.6752 3.56065 13.7098 3.57505 13.7453C4.00225 14.7658 5.17633 15.2477 6.19777 14.8214C7.21825 14.3942 7.70017 13.2202 7.27393 12.1987C7.23649 12.1114 7.19329 12.0269 7.14433 11.9462C7.24705 11.8781 7.35841 11.8109 7.47745 11.7408C7.84225 13.008 8.38273 14.0784 9.01345 14.9731C9.24193 15.312 9.48769 15.6384 9.75649 15.9523C8.63521 16.4429 7.22209 16.7309 5.91361 16.464C4.64833 16.2058 3.53377 15.3802 2.96065 14.1062C2.85121 13.8566 2.76865 13.5955 2.71393 13.3286C2.68033 13.0992 2.65441 12.8678 2.63809 12.6365C2.34625 8.3376 5.01217 4.512 8.89345 3.14784ZM12.6355 21.3581C10.0829 21.5328 7.69633 20.6621 5.89345 19.1136C8.16865 19.4237 10.3584 18.7008 11.8493 17.8157C14.8167 19.8835 16.7434 19.584 17.6506 18.5098C18.3715 17.6698 18.2746 16.4045 17.4346 15.6835C17.4048 15.6576 17.3741 15.6336 17.3424 15.6096C16.4621 14.9386 15.2045 15.1085 14.5335 15.9888L14.5325 15.9898C14.4749 16.0656 14.424 16.1482 14.3789 16.2298C14.2704 16.1741 14.1552 16.1126 14.0381 16.0445C14.8743 15.1814 15.5597 14.185 16.0647 13.0954C16.2461 12.7267 16.4045 12.3475 16.5408 11.9597C17.5267 12.6874 18.4839 13.7645 18.9072 15.0317C19.3162 16.2557 19.1597 17.6362 18.3427 18.768C18.1815 18.9878 17.9971 19.1894 17.7927 19.3699L17.785 19.3776C16.3085 20.5411 14.5143 21.2304 12.6384 21.3552C12.6375 21.3562 12.6355 21.3581 12.6355 21.3581Z" fill="url(#paint0_linear_2446_244)"/>
<path opacity="0.9" d="M14.808 3.85056C14.5834 3.80736 14.352 3.80544 14.1264 3.84288C15.2746 4.46688 16.1107 6.2064 15.6711 9.64032C15.5261 10.7568 15.1978 11.8426 14.6995 12.8525C14.2704 13.7741 13.7127 14.6304 13.0416 15.3946C13.3594 15.6336 13.6925 15.8525 14.0381 16.0502C14.8743 15.1882 15.5597 14.1907 16.0656 13.1011C16.5648 12.0912 16.8922 11.0064 17.0371 9.88896C17.5613 5.80224 16.2759 4.11456 14.809 3.85248L14.808 3.85056Z" fill="url(#paint1_radial_2446_244)"/>
<path opacity="0.8" d="M15.671 9.63744C16.1107 6.20544 15.2745 4.464 14.1264 3.84C14.0813 3.84576 14.0381 3.85632 13.9929 3.86688C15.1161 4.51392 15.9254 6.25056 15.4925 9.63744C15.3475 10.7539 15.0192 11.8397 14.5209 12.8496C14.1072 13.7386 13.5734 14.567 12.9331 15.3101C12.9696 15.3389 13.0051 15.3658 13.0416 15.3917C13.7117 14.6266 14.2694 13.7712 14.6985 12.8496C15.1977 11.8397 15.5261 10.7549 15.671 9.63744Z" fill="white"/>
<path opacity="0.5" d="M11.3069 17.423C11.1984 17.3414 11.0957 17.255 10.991 17.1686C9.29664 17.8752 6.94944 18.3187 4.61664 17.7763C4.9968 18.263 5.424 18.7104 5.89152 19.1136C8.16672 19.4237 10.3565 18.7008 11.8474 17.8157C11.664 17.688 11.4835 17.5565 11.305 17.4211L11.3069 17.423Z" fill="url(#paint2_radial_2446_244)"/>
<path opacity="0.6" d="M10.992 17.1686C10.9411 17.1254 10.8874 17.0822 10.8384 17.039C9.13154 17.7206 6.77186 18.1296 4.44482 17.5478C4.50242 17.6237 4.56002 17.7014 4.61762 17.7763C6.94946 18.3187 9.29858 17.8752 10.992 17.1686Z" fill="url(#paint3_linear_2446_244)"/>
<path opacity="0.9" d="M3.53572 13.6406C3.54724 13.6771 3.5626 13.7126 3.577 13.7472C3.65284 13.9277 3.75172 14.0899 3.87076 14.2358C3.83812 12.9302 4.92676 11.3338 8.1178 9.99936C9.15748 9.56736 10.2615 9.30912 11.3847 9.2352C12.3975 9.14496 13.4189 9.20064 14.4164 9.39936C14.4682 8.96832 14.4884 8.56608 14.4845 8.20992C13.32 7.91712 12.1133 7.82208 10.9172 7.92864C9.793 8.00256 8.689 8.2608 7.64932 8.6928C3.84868 10.2826 3.02884 12.24 3.53668 13.6416L3.53572 13.6406Z" fill="url(#paint4_radial_2446_244)"/>
<path opacity="0.8" d="M8.11774 10.0013C4.9267 11.3366 3.83806 12.9322 3.8707 14.2378C3.8995 14.2723 3.93022 14.3059 3.96094 14.3386C3.95902 13.0426 5.05918 11.4739 8.20798 10.1549C9.24766 9.72288 10.3517 9.46464 11.4749 9.39072C12.4512 9.30432 13.4361 9.35232 14.399 9.53472C14.4057 9.4896 14.4105 9.44448 14.4153 9.39936C13.4179 9.2016 12.3974 9.14592 11.3837 9.2352C10.2605 9.30912 9.15646 9.56736 8.11678 9.99936C8.11774 9.99936 8.11774 10.0013 8.11774 10.0013Z" fill="white"/>
<path opacity="0.4" d="M17.041 9.88608C17.0247 10.0214 17.0026 10.153 16.9796 10.2864C18.4378 11.4 19.9968 13.2125 20.6948 15.5021C20.9252 14.929 21.0999 14.3347 21.2141 13.728C20.3453 11.6026 18.624 10.0675 17.113 9.21984C17.0948 9.43584 17.0717 9.65568 17.0429 9.88512C17.0429 9.88608 17.041 9.88608 17.041 9.88608Z" fill="url(#paint5_radial_2446_244)"/>
<path opacity="0.5" d="M16.9786 10.2864C16.9661 10.3517 16.9555 10.4198 16.9431 10.4861C18.3869 11.6237 19.921 13.4621 20.5805 15.768C20.6189 15.6797 20.6563 15.5914 20.6909 15.503C19.993 13.2134 18.4359 11.4019 16.9757 10.2864C16.9767 10.2864 16.9786 10.2864 16.9786 10.2864Z" fill="url(#paint6_linear_2446_244)"/>
<path opacity="0.9" d="M17.6506 18.5078C17.7994 18.3331 17.9175 18.1344 18 17.9203C16.8845 18.6019 14.9597 18.456 12.2064 16.3594C11.3117 15.6758 10.5351 14.8483 9.91012 13.9114C9.32548 13.079 8.86276 12.168 8.53636 11.2051C8.13796 11.376 7.77892 11.5603 7.47076 11.7408C7.80004 12.8957 8.32036 13.9882 9.0106 14.9712C9.62692 15.8909 10.3949 16.7232 11.3069 17.4192C14.5844 19.9162 16.6896 19.6474 17.6487 18.5069L17.6506 18.5078Z" fill="url(#paint7_radial_2446_244)"/>
<path opacity="0.8" d="M12.2083 16.3594C14.9597 18.456 16.8864 18.6019 18.001 17.9194C18.0173 17.8762 18.0317 17.833 18.0442 17.7917C16.9229 18.4426 15.0125 18.2717 12.2986 16.2048C11.4038 15.5213 10.6272 14.6938 10.0022 13.7568C9.43872 12.9542 8.98944 12.0778 8.66496 11.1523C8.62176 11.1706 8.58048 11.1869 8.54016 11.2051C8.86656 12.168 9.32928 13.08 9.91392 13.9123C10.5302 14.832 11.2982 15.6643 12.2102 16.3603L12.2083 16.3594Z" fill="white"/>
<path opacity="0.3" d="M7.64737 8.68896C7.77217 8.63712 7.89793 8.59008 8.02465 8.54304C8.25889 6.72384 9.04993 4.46688 10.6848 2.71872C10.0723 2.80704 9.47041 2.95104 8.88769 3.1536C7.48033 4.96992 7.01185 7.22688 7.03297 8.96064C7.22785 8.86848 7.43137 8.77824 7.64545 8.68992L7.64737 8.68896Z" fill="url(#paint8_radial_2446_244)"/>
<path opacity="0.4" d="M8.02466 8.54304C8.08898 8.52096 8.15042 8.496 8.21378 8.47296C8.47682 6.6528 9.30242 4.4064 10.968 2.68128C10.8739 2.69184 10.7789 2.70432 10.6848 2.7168C9.04994 4.46688 8.25986 6.72096 8.02562 8.54112L8.02466 8.54304Z" fill="url(#paint9_linear_2446_244)"/>
<path opacity="0.4" d="M11.185 0.0287979C7.8912 0.252478 4.99969 1.78656 2.98177 4.0848L2.93665 4.13568C3.32833 4.5264 4.61473 5.2944 5.13409 5.61408C6.16993 4.49856 7.46113 3.65184 8.89729 3.14784C8.99809 3.01632 9.10464 2.88672 9.216 2.76192C10.5696 1.23264 12.4205 0.425278 14.568 0.425278C14.8061 0.425278 15.2928 0.464638 15.3034 0.464638C13.967 0.0796779 12.5731 -0.0681621 11.185 0.0287979Z" fill="url(#paint10_linear_2446_244)"/>
<path opacity="0.4" d="M12.6355 21.36C10.0829 21.5347 7.69633 20.664 5.89345 19.1155C5.72449 19.0934 5.55553 19.0656 5.38849 19.031C3.38593 18.6221 1.75969 17.423 0.687367 15.5645C0.569287 15.359 0.461767 15.1478 0.364807 14.9318C1.75105 20.4586 6.92833 24.3725 12.8122 23.9722C12.839 23.3664 12.6605 21.96 12.6336 21.36H12.6355Z" fill="url(#paint11_linear_2446_244)"/>
<path opacity="0.4" d="M23.9703 11.1859C23.6007 11.1485 21.8016 11.2906 21.3581 11.3645C21.4138 12.1786 21.3619 12.9754 21.216 13.7434C21.2775 13.895 21.337 14.0515 21.3907 14.209C22.0378 16.1482 21.8122 18.1546 20.7399 20.015C20.6208 20.2205 20.4922 20.4192 20.3539 20.6112C20.3539 20.6112 20.3597 20.6064 20.3616 20.6026C22.8 18.2304 24.2189 14.8464 23.9703 11.1888V11.1859Z" fill="url(#paint12_linear_2446_244)"/>
<path opacity="0.5" d="M14.6918 3.12192C14.9549 3.1488 15.2362 3.21408 15.4886 3.29856C15.5002 3.3024 15.5136 3.30624 15.5232 3.30816C16.5533 3.72864 17.5008 4.32768 18.3226 5.0784C18.3226 5.0784 18.3264 5.08032 18.3283 5.08224C18.7229 4.63296 19.4803 4.1376 19.4803 4.1376C19.4803 4.1376 18.3206 2.95008 16.5437 2.58048C15.3014 2.32128 12.4982 2.0736 10.7299 5.08128L10.7462 5.06496C10.8778 4.8672 11.015 4.67424 11.1734 4.4976C12.0298 3.53184 13.3027 2.97984 14.6918 3.12192Z" fill="url(#paint13_linear_2446_244)"/>
<path opacity="0.5" d="M18.3427 18.7699C18.1814 18.9898 17.9971 19.1914 17.7926 19.3718C17.785 19.3795 17.7744 19.3882 17.7658 19.3968C16.8864 20.0784 15.8938 20.5987 14.833 20.9347C14.831 20.9347 14.8291 20.9347 14.8262 20.9366C15.0192 21.503 15.0691 22.4074 15.0691 22.4074C15.0691 22.4074 16.6771 21.9965 17.8848 20.6429C18.7286 19.6963 20.3472 17.3923 18.6259 14.3568C18.6259 14.3568 18.6278 14.3664 18.6326 14.3789C18.7392 14.591 18.8362 14.808 18.9101 15.0317C19.319 16.2557 19.1626 17.6362 18.3456 18.767C18.3446 18.768 18.3427 18.7699 18.3427 18.7699Z" fill="url(#paint14_linear_2446_244)"/>
<path opacity="0.5" d="M2.96543 14.111C2.85599 13.8614 2.77247 13.6003 2.71871 13.3325C2.71679 13.321 2.71295 13.3075 2.71103 13.295C2.55935 12.1882 2.60831 11.0669 2.84447 9.98688V9.98016C2.25695 9.86496 1.44959 9.45408 1.44959 9.45408C1.44959 9.45408 1.00127 11.0544 1.57055 12.7747C1.96895 13.9795 3.15359 16.5331 6.64223 16.56C6.64223 16.56 6.63263 16.5581 6.62015 16.5533C6.38399 16.5389 6.14783 16.5149 5.91647 16.4669C4.65119 16.2077 3.53567 15.3821 2.96255 14.1091C2.96255 14.111 2.96543 14.111 2.96543 14.111Z" fill="url(#paint15_linear_2446_244)"/>
<path opacity="0.6" d="M14.1859 7.80864C14.2819 7.82016 14.377 7.82496 14.4691 7.82304C14.4691 7.82304 14.4058 6.57696 14.2531 5.93568C14.0995 5.29728 13.873 4.872 13.6262 4.632C13.4477 4.4592 12.887 4.24512 12.4522 5.56416C12.3101 6.66048 13.0848 7.66464 14.1811 7.80672C14.183 7.80672 14.184 7.80672 14.1859 7.80768V7.80864Z" fill="url(#paint16_linear_2446_244)"/>
<path opacity="0.5" d="M7.27583 12.2026C7.23839 12.1152 7.19519 12.0317 7.14623 11.9501C7.14623 11.9501 6.09695 12.6278 5.61983 13.079C5.14367 13.5312 4.88831 13.9402 4.80479 14.2742C4.74527 14.5142 4.83935 15.1066 6.19967 14.8243C7.22111 14.3981 7.70207 13.224 7.27583 12.2026Z" fill="url(#paint17_linear_2446_244)"/>
<path opacity="0.6" d="M14.5354 15.9878C14.4778 16.0637 14.4269 16.1462 14.3818 16.2278C14.3818 16.2278 15.4935 16.7971 16.1232 16.9843C16.7539 17.1715 17.2339 17.1878 17.5651 17.0928C17.8032 17.0256 18.2679 16.6454 17.3453 15.6106C16.465 14.9395 15.2074 15.1094 14.5363 15.9898C14.5363 15.9898 14.5363 15.9907 14.5354 15.9907C14.5354 15.9898 14.5354 15.9878 14.5354 15.9878Z" fill="url(#paint18_linear_2446_244)"/>
<path opacity="0.3" d="M14.1044 10.8182C13.8519 11.6563 13.4986 12.4186 13.0656 13.0896C13.0426 13.1242 13.0205 13.1597 12.9956 13.1962C12.9956 13.1962 12.9956 13.1981 12.9936 13.2C12.6903 13.6358 12.3466 14.0429 11.9664 14.4144C12.242 14.7062 12.5376 14.9894 12.864 15.2582C13.2356 15.5501 13.6282 15.8141 14.0381 16.0464C14.8743 15.1843 15.5597 14.1869 16.0656 13.0973C16.2461 12.7286 16.4055 12.3494 16.5418 11.9616C16.1194 11.6515 15.6922 11.4029 15.2976 11.2349C14.9088 11.0688 14.5095 10.9296 14.1024 10.8182H14.1044Z" fill="url(#paint19_linear_2446_244)"/>
<path opacity="0.3" d="M5.89348 19.1155C8.16868 19.4256 10.3575 18.7027 11.8493 17.8176C11.666 17.6899 11.4855 17.5584 11.3069 17.423C10.7396 16.9891 10.2192 16.4976 9.7546 15.9552C8.63332 16.4458 7.2202 16.7328 5.91172 16.4659C4.64644 16.2077 3.53188 15.3821 2.95876 14.1091C2.84932 13.8595 2.76676 13.5984 2.71204 13.3306C3.04324 15.6509 4.21348 17.6755 5.89156 19.1155H5.89348Z" fill="url(#paint20_linear_2446_244)"/>
<path opacity="0.3" d="M11.9664 14.4144C11.3914 13.8067 10.9047 13.1222 10.5207 12.3792C10.5024 12.3398 10.4813 12.3053 10.4631 12.2659V12.2621C10.2375 11.7811 10.0579 11.279 9.92545 10.7645C9.53473 10.8566 9.14305 10.9718 8.74849 11.1197C8.31073 11.2944 7.88641 11.5018 7.47937 11.7398C7.84513 13.007 8.38465 14.0774 9.01537 14.9722C9.24385 15.311 9.49057 15.6374 9.75937 15.9514C10.2394 15.7421 10.6695 15.4934 11.0112 15.2362C11.3482 14.9827 11.6679 14.7072 11.9683 14.4106C11.9683 14.4125 11.9664 14.4144 11.9664 14.4144Z" fill="url(#paint21_linear_2446_244)"/>
<path opacity="0.3" d="M8.88866 3.15648C7.4813 4.97184 7.01282 7.2288 7.03394 8.9616C7.2365 8.86656 7.44098 8.77536 7.64834 8.68896C8.3069 8.4144 8.99234 8.20992 9.69314 8.07936C9.82946 6.86304 10.2864 5.496 11.1715 4.4976C12.0279 3.52992 13.3008 2.97792 14.6899 3.12C14.953 3.14688 15.2343 3.21216 15.4867 3.29664C15.4983 3.30048 15.5107 3.30432 15.5213 3.30624C14.2032 2.76864 12.7795 2.54016 11.3597 2.63904C10.4976 2.69856 9.67202 2.87328 8.89154 3.14784C8.88962 3.14976 8.8877 3.1536 8.88578 3.15552H8.88866V3.15648Z" fill="url(#paint22_linear_2446_244)"/>
<path opacity="0.3" d="M21.2141 13.727C20.3434 11.6016 18.6221 10.0646 17.1111 9.21696C17.0928 9.43296 17.0708 9.65472 17.0391 9.88704C16.9479 10.5946 16.7818 11.2906 16.5447 11.9635C17.5306 12.6912 18.4877 13.7683 18.9111 15.0355C19.3191 16.2595 19.1636 17.64 18.3466 18.7709C18.1853 18.9907 18.001 19.1923 17.7965 19.3728L17.7888 19.3805C19.5504 17.9962 20.7965 16.0003 21.2247 13.7414C21.2247 13.7376 21.2208 13.7328 21.2208 13.729L21.2141 13.727Z" fill="url(#paint23_linear_2446_244)"/>
<path opacity="0.3" d="M9.68639 9.52512C9.73631 9.94368 9.81503 10.3584 9.92255 10.7654C10.775 10.5638 11.6102 10.4899 12.4099 10.5293L12.5376 10.535H12.5414C13.0426 10.5763 13.5638 10.6685 14.1043 10.8163C14.2195 10.4323 14.3155 10.0339 14.3856 9.61824C14.4614 9.1008 14.4835 8.62176 14.4816 8.20512C13.2019 7.88928 12.0067 7.82496 10.9171 7.92384C10.5072 7.95072 10.0992 8.00256 9.69503 8.07744C9.63743 8.59872 9.63551 9.09408 9.68831 9.52128C9.68831 9.5232 9.68639 9.52512 9.68639 9.52512Z" fill="url(#paint24_linear_2446_244)"/>
</g>
<defs>
<linearGradient id="paint0_linear_2446_244" x1="3.81044" y1="20.1891" x2="19.1102" y2="4.88737" gradientUnits="userSpaceOnUse">
<stop stop-color="#E6007A"/>
<stop offset="0.21" stop-color="#703AC2"/>
<stop offset="0.46" stop-color="#0070EB"/>
<stop offset="0.77" stop-color="#0297FB"/>
<stop offset="1" stop-color="#0AE2FF"/>
</linearGradient>
<radialGradient id="paint1_radial_2446_244" cx="0" cy="0" r="1" gradientUnits="userSpaceOnUse" gradientTransform="translate(15.4203 9.5699) scale(4.56324)">
<stop stop-color="white"/>
<stop offset="1" stop-color="white" stop-opacity="0"/>
</radialGradient>
<radialGradient id="paint2_radial_2446_244" cx="0" cy="0" r="1" gradientUnits="userSpaceOnUse" gradientTransform="translate(8.6762 18.035) scale(2.65538)">
<stop stop-color="white"/>
<stop offset="1" stop-color="white" stop-opacity="0"/>
</radialGradient>
<linearGradient id="paint3_linear_2446_244" x1="4.69177" y1="17.5856" x2="7.25099" y2="17.5504" gradientUnits="userSpaceOnUse">
<stop stop-color="white" stop-opacity="0"/>
<stop offset="1" stop-color="white"/>
</linearGradient>
<radialGradient id="paint4_radial_2446_244" cx="0" cy="0" r="1" gradientUnits="userSpaceOnUse" gradientTransform="translate(8.18632 10.2511) rotate(-120) scale(4.56323)">
<stop stop-color="white"/>
<stop offset="1" stop-color="white" stop-opacity="0"/>
</radialGradient>
<radialGradient id="paint5_radial_2446_244" cx="0" cy="0" r="1" gradientUnits="userSpaceOnUse" gradientTransform="translate(18.8895 11.8597) rotate(-120) scale(2.65537)">
<stop stop-color="white"/>
<stop offset="1" stop-color="white" stop-opacity="0"/>
</radialGradient>
<linearGradient id="paint6_linear_2446_244" x1="20.4892" y1="15.5343" x2="19.1792" y2="13.3359" gradientUnits="userSpaceOnUse">
<stop stop-color="white" stop-opacity="0"/>
<stop offset="1" stop-color="white"/>
</linearGradient>
<radialGradient id="paint7_radial_2446_244" cx="0" cy="0" r="1" gradientUnits="userSpaceOnUse" gradientTransform="translate(12.1761 15.9648) rotate(120) scale(4.56323)">
<stop stop-color="white"/>
<stop offset="1" stop-color="white" stop-opacity="0"/>
</radialGradient>
<radialGradient id="paint8_radial_2446_244" cx="0" cy="0" r="1" gradientUnits="userSpaceOnUse" gradientTransform="translate(8.43299 6.10457) rotate(120) scale(2.65537)">
<stop stop-color="white"/>
<stop offset="1" stop-color="white" stop-opacity="0"/>
</radialGradient>
<linearGradient id="paint9_linear_2446_244" x1="10.8103" y1="2.87596" x2="9.56272" y2="5.11078" gradientUnits="userSpaceOnUse">
<stop stop-color="white" stop-opacity="0"/>
<stop offset="1" stop-color="white"/>
</linearGradient>
<linearGradient id="paint10_linear_2446_244" x1="11.3708" y1="1.74205" x2="7.46034" y2="2.87966" gradientUnits="userSpaceOnUse">
<stop stop-color="#231F20"/>
<stop offset="1" stop-color="white"/>
</linearGradient>
<linearGradient id="paint11_linear_2446_244" x1="3.98267" y1="16.6518" x2="7.2523" y2="20.0646" gradientUnits="userSpaceOnUse">
<stop stop-color="#231F20"/>
<stop offset="1" stop-color="white"/>
</linearGradient>
<linearGradient id="paint12_linear_2446_244" x1="21.53" y1="16.1375" x2="22.6676" y2="12.679" gradientUnits="userSpaceOnUse">
<stop stop-color="#231F20"/>
<stop offset="1" stop-color="white"/>
</linearGradient>
<linearGradient id="paint13_linear_2446_244" x1="13.1512" y1="3.72037" x2="18.3924" y2="4.91998" gradientUnits="userSpaceOnUse">
<stop stop-color="#231F20"/>
<stop offset="1" stop-color="white"/>
</linearGradient>
<linearGradient id="paint14_linear_2446_244" x1="18.5945" y1="17.1362" x2="14.9324" y2="21.0762" gradientUnits="userSpaceOnUse">
<stop stop-color="#231F20"/>
<stop offset="1" stop-color="white"/>
</linearGradient>
<linearGradient id="paint15_linear_2446_244" x1="4.25281" y1="15.1449" x2="2.67279" y2="10.0053" gradientUnits="userSpaceOnUse">
<stop stop-color="#231F20"/>
<stop offset="1" stop-color="white"/>
</linearGradient>
<linearGradient id="paint16_linear_2446_244" x1="14.2964" y1="5.65282" x2="12.6391" y2="7.31243" gradientUnits="userSpaceOnUse">
<stop stop-color="#231F20"/>
<stop offset="1" stop-color="white"/>
</linearGradient>
<linearGradient id="paint17_linear_2446_244" x1="5.3551" y1="13.1831" x2="7.61991" y2="13.7915" gradientUnits="userSpaceOnUse">
<stop stop-color="#231F20"/>
<stop offset="1" stop-color="white"/>
</linearGradient>
<linearGradient id="paint18_linear_2446_244" x1="16.345" y1="17.1615" x2="15.7382" y2="14.8975" gradientUnits="userSpaceOnUse">
<stop stop-color="#231F20"/>
<stop offset="1" stop-color="white"/>
</linearGradient>
<linearGradient id="paint19_linear_2446_244" x1="12.8953" y1="15.1463" x2="13.8913" y2="13.7727" gradientUnits="userSpaceOnUse">
<stop stop-color="#231F20"/>
<stop offset="1" stop-color="white"/>
</linearGradient>
<linearGradient id="paint20_linear_2446_244" x1="9.47098" y1="14.5514" x2="7.48096" y2="15.5002" gradientUnits="userSpaceOnUse">
<stop stop-color="#231F20"/>
<stop offset="1" stop-color="white"/>
</linearGradient>
<linearGradient id="paint21_linear_2446_244" x1="8.75047" y1="11.2384" x2="9.36648" y2="12.518" gradientUnits="userSpaceOnUse">
<stop stop-color="#231F20"/>
<stop offset="1" stop-color="white"/>
</linearGradient>
<linearGradient id="paint22_linear_2446_244" x1="11.612" y1="7.28871" x2="11.1868" y2="5.8203" gradientUnits="userSpaceOnUse">
<stop stop-color="#231F20"/>
<stop offset="1" stop-color="white"/>
</linearGradient>
<linearGradient id="paint23_linear_2446_244" x1="16.2097" y1="14.0131" x2="17.4417" y2="14.2967" gradientUnits="userSpaceOnUse">
<stop stop-color="#231F20"/>
<stop offset="1" stop-color="white"/>
</linearGradient>
<linearGradient id="paint24_linear_2446_244" x1="14.2767" y1="9.85076" x2="12.7139" y2="9.56716" gradientUnits="userSpaceOnUse">
<stop stop-color="#231F20"/>
<stop offset="1" stop-color="white"/>
</linearGradient>
<clipPath id="clip0_2446_244">
<rect width="24" height="24" fill="white"/>
</clipPath>
</defs>
</svg>
