<svg width="106" height="28" viewBox="0 0 106 28" fill="none" xmlns="http://www.w3.org/2000/svg">
<path d="M92.063 1C99.2008 1 105.005 6.83 105.005 14C105.005 21.17 99.2008 27 92.063 27H22.8761C18.1474 27 13.7872 24.41 11.5174 20.23L11.4577 20.11L11.3681 20.01C7.49564 16 4.05122 11.33 2.26928 8.51C3.07564 8.86 3.97158 9.04 4.94717 9.04C6.95807 9.04 9.32735 8.29 11.9754 6.82L12.1745 6.71L12.3039 6.52C14.7329 3.07 18.685 1 22.8761 1H92.063ZM92.063 0H22.8761C18.1674 0 14.0161 2.35 11.4876 5.94C9.2278 7.19 6.94812 8.04 4.93721 8.04C3.59329 8.04 2.37879 7.66 1.36338 6.78C0.73622 6.23 0.338021 5.99 0.148877 5.99C-1.01585 5.99 4.85757 14.71 10.6414 20.71C13.0107 25.05 17.5999 28 22.8761 28H92.063C99.7582 28 106 21.73 106 14C106 6.27 99.7582 0 92.063 0Z" fill="#2D00F7"/>
</svg>
