<svg width="16" height="16" viewBox="0 0 16 16" fill="none" xmlns="http://www.w3.org/2000/svg">
<g clip-path="url(#clip0_3146_21149)">
<path d="M8.00019 14.8803C6.93019 14.9003 5.89019 14.7203 4.89019 14.3303C4.78019 14.2903 4.70019 14.2903 4.60019 14.3503C3.48019 14.9503 2.27019 15.3103 1.03019 15.5703C0.800191 15.6203 0.560191 15.6603 0.320191 15.7003C0.200191 15.7203 0.100191 15.6803 0.0401909 15.5703C-0.0198091 15.4603 -0.00980908 15.3503 0.0701909 15.2703C0.650191 14.6303 1.43019 13.0703 1.25019 11.7503C1.24019 11.6603 1.23019 11.5503 1.18019 11.4803C0.750191 10.8403 0.420191 10.1503 0.230191 9.41035C-0.209809 7.70035 -0.0198091 6.07035 0.830191 4.54035C1.91019 2.61035 3.57019 1.41035 5.68019 0.830346C7.89019 0.230346 10.0302 0.440346 12.0602 1.52035C13.8902 2.49035 15.1902 3.94035 15.7402 5.97035C16.3602 8.25035 15.8302 10.3103 14.3102 12.1003C13.0102 13.6203 11.3302 14.4703 9.36019 14.7903C9.13019 14.8303 8.90019 14.8603 8.66019 14.8703C8.44019 14.8803 8.21019 14.8703 7.99019 14.8703L8.00019 14.8803ZM4.29019 8.77035C4.87019 8.76035 5.34019 8.28035 5.33019 7.71035C5.33019 7.12035 4.83019 6.63035 4.25019 6.65035C3.67019 6.66035 3.19019 7.15035 3.20019 7.73035C3.21019 8.33035 3.70019 8.79035 4.29019 8.78035V8.77035ZM11.7302 8.77035C12.3102 8.77035 12.7902 8.29035 12.7902 7.71035C12.7902 7.13035 12.3102 6.65035 11.7302 6.64035C11.1502 6.64035 10.6502 7.14035 10.6602 7.71035C10.6702 8.30035 11.1502 8.77035 11.7302 8.76035V8.77035ZM8.00019 8.77035C8.59019 8.77035 9.06019 8.29035 9.06019 7.71035C9.06019 7.13035 8.57019 6.64035 7.99019 6.65035C7.41019 6.65035 6.93019 7.14035 6.93019 7.72035C6.93019 8.31035 7.41019 8.78035 8.00019 8.78035V8.77035Z" fill="#2D00F7"/>
</g>
<defs>
<clipPath id="clip0_3146_21149">
<rect width="16" height="16" fill="white"/>
</clipPath>
</defs>
</svg>
