<svg width="32" height="32" viewBox="0 0 32 32" fill="none" xmlns="http://www.w3.org/2000/svg">
<circle cx="16" cy="15.7998" r="15.5" fill="white"/>
<path d="M6.64971 15.2096C6.64974 15.0307 6.68505 14.8535 6.75362 14.6883C6.82218 14.5231 6.92265 14.373 7.04925 14.2468C7.17584 14.1206 7.32608 14.0207 7.49133 13.9528C7.65658 13.8849 7.83359 13.8504 8.01219 13.8512L10.2711 13.8586C10.6312 13.8586 10.9766 14.0019 11.2313 14.2571C11.486 14.5122 11.6291 14.8583 11.6291 15.2191V23.7771C11.8835 23.7015 12.2091 23.621 12.5673 23.5365C12.8156 23.4779 13.0368 23.3372 13.1951 23.1369C13.3535 22.9366 13.4397 22.6887 13.4397 22.4332V11.8184C13.4397 11.4576 13.5828 11.1115 13.8375 10.8563C14.0921 10.6011 14.4375 10.4577 14.7977 10.4576H17.0635C17.4236 10.4577 17.7691 10.6011 18.0237 10.8563C18.2784 11.1115 18.4215 11.4576 18.4215 11.8184V21.6706C18.4215 21.6706 18.9883 21.4408 19.5401 21.2073C19.7451 21.1204 19.9201 20.975 20.0432 20.7891C20.1662 20.6033 20.232 20.3852 20.2321 20.1622V8.4169C20.2321 8.05611 20.3752 7.71009 20.6298 7.45494C20.8844 7.19979 21.2298 7.05642 21.5899 7.05635H23.8532C24.2131 7.0567 24.5582 7.2002 24.8126 7.45532C25.067 7.71043 25.2099 8.05629 25.2099 8.4169V18.0887C27.1722 16.664 29.1608 14.9503 30.7389 12.8897C30.9679 12.5907 31.1194 12.2394 31.1799 11.8674C31.2405 11.4954 31.2082 11.1141 31.0859 10.7577C30.3554 8.65202 29.1941 6.72235 27.6765 5.09213C26.1589 3.46191 24.3183 2.16706 22.2726 1.29041C20.2268 0.413763 18.0209 -0.0253641 15.796 0.00113141C13.5711 0.0276269 11.3763 0.51916 9.35188 1.44428C7.32749 2.36939 5.51815 3.70772 4.03965 5.37362C2.56114 7.03951 1.44603 8.99629 0.765668 11.1187C0.0853079 13.2412 -0.145318 15.4826 0.0885485 17.6994C0.322415 19.9163 1.01562 22.0598 2.12381 23.9929C2.31689 24.3264 2.60094 24.5977 2.9426 24.775C3.28426 24.9523 3.66934 25.0283 4.0526 24.994C4.48075 24.9562 5.01383 24.9028 5.64761 24.8283C5.92345 24.7969 6.17811 24.6649 6.3631 24.4575C6.54808 24.2501 6.65047 23.9818 6.65076 23.7037V15.2096" fill="#21325B"/>
<path d="M6.60156 28.9343C8.98729 30.6731 11.8066 31.7168 14.7477 31.95C17.6887 32.1831 20.6368 31.5966 23.2658 30.2552C25.8948 28.9139 28.1021 26.8701 29.6437 24.3499C31.1852 21.8297 32.0008 18.9314 32.0003 15.9756C32.0003 15.6058 31.9831 15.2418 31.9586 14.8789C26.1156 23.6099 15.327 27.6915 6.60156 28.9343" fill="#979695"/>
</svg>
