<svg width="24" height="24" viewBox="0 0 24 24" fill="none" xmlns="http://www.w3.org/2000/svg">
<path fill-rule="evenodd" clip-rule="evenodd" d="M4.7882 3.06167V1.5H3.05742V3.06183C1.72573 3.43862 0.75 4.66306 0.75 6.1154C0.75 7.56775 1.72573 8.79219 3.05742 9.16898V23.1348H4.7882V9.16914C6.12019 8.79254 7.09619 7.56795 7.09619 6.1154C7.09619 4.66286 6.12019 3.43827 4.7882 3.06167ZM3.9231 4.67309C4.71967 4.67309 5.36541 5.31883 5.36541 6.1154C5.36541 6.91197 4.71967 7.55772 3.9231 7.55772C3.12653 7.55772 2.48078 6.91197 2.48078 6.1154C2.48078 5.31883 3.12653 4.67309 3.9231 4.67309Z" fill="#2D00F7"/>
<path fill-rule="evenodd" clip-rule="evenodd" d="M12.8652 1.5H11.1344V14.6003C9.80256 14.977 8.82669 16.2015 8.82669 17.6539C8.82669 19.1064 9.80256 20.3309 11.1344 20.7076V22.2694H12.8652V20.7076C14.197 20.3309 15.1729 19.1064 15.1729 17.6539C15.1729 16.2015 14.197 14.977 12.8652 14.6003V1.5ZM13.4421 17.6539C13.4421 16.8574 12.7964 16.2116 11.9998 16.2116C11.2032 16.2116 10.5575 16.8574 10.5575 17.6539C10.5575 18.4505 11.2032 19.0963 11.9998 19.0963C12.7964 19.0963 13.4421 18.4505 13.4421 17.6539Z" fill="#2D00F7"/>
<path fill-rule="evenodd" clip-rule="evenodd" d="M20.9422 1.5H19.2114V5.36951C17.8796 5.74625 16.9038 6.97074 16.9038 8.42313C16.9038 9.87552 17.8796 11.1 19.2114 11.4767V22.2694H20.9422V11.4768C22.2741 11.1002 23.25 9.87562 23.25 8.42313C23.25 6.97063 22.2741 5.74608 20.9422 5.36944V1.5ZM20.0769 6.98081C20.8735 6.98081 21.5192 7.62656 21.5192 8.42313C21.5192 9.2197 20.8735 9.86545 20.0769 9.86545C19.2803 9.86545 18.6346 9.2197 18.6346 8.42313C18.6346 7.62656 19.2803 6.98081 20.0769 6.98081Z" fill="#2D00F7"/>
</svg>
