<svg width="16" height="16" viewBox="0 0 16 16" fill="none" xmlns="http://www.w3.org/2000/svg">
<path d="M8.00112 3.67677C8.13052 3.51924 8.24267 3.3792 8.36345 3.23917C8.9501 2.60026 9.65752 2.15391 10.5289 2.04013C11.8747 1.86509 13.0221 2.28519 13.9107 3.34419C14.7475 4.34193 15.0149 5.52347 14.8596 6.81003C14.7475 7.72025 14.3506 8.50794 13.8244 9.23437C13.1687 10.1271 12.3664 10.8885 11.5382 11.6149C10.5634 12.4726 9.57987 13.3304 8.59638 14.1793C8.21679 14.5031 7.81132 14.5206 7.44898 14.2056C6.17217 13.0853 4.89537 11.965 3.63581 10.8272C2.98878 10.2409 2.40214 9.5932 1.92765 8.84927C1.0822 7.5277 0.857891 6.10111 1.38414 4.59575C1.96216 2.9591 3.42014 1.9176 5.18006 2.00512C6.16355 2.05763 6.97449 2.50399 7.63878 3.23042C7.69917 3.30043 7.76819 3.37045 7.82857 3.44922C7.88896 3.51924 7.94073 3.58925 8.00112 3.67677Z" fill="#03045E"/>
</svg>
