<svg width="16" height="16" viewBox="0 0 16 16" fill="none" xmlns="http://www.w3.org/2000/svg">
<path d="M11.3762 6.12376C11.62 6.13314 11.8451 6.12376 12.0701 6.16126C12.7452 6.2644 13.2421 6.83635 13.2515 7.52082C13.2515 8.24279 13.2515 8.96476 13.2515 9.68673C13.2515 11.1494 13.2515 12.6027 13.2515 14.0654C13.2515 14.7405 12.8483 15.2843 12.2107 15.4531C12.0795 15.4906 11.9388 15.5 11.8075 15.5C9.0228 15.5 6.23806 15.5 3.44394 15.5C2.60946 15.5 2 14.8905 2 14.0561C2 11.8901 2 9.73361 2 7.5677C2 6.73322 2.60946 6.13314 3.44394 6.12376C3.58458 6.12376 3.71585 6.12376 3.87525 6.12376V5.96436C3.87525 5.41117 3.87525 4.84859 3.87525 4.29539C3.87525 2.39202 5.1973 0.844936 7.08192 0.544896C9.05093 0.226104 11.0012 1.64192 11.32 3.6203C11.3575 3.86409 11.3762 4.10787 11.3762 4.35165C11.3762 4.94235 11.3762 5.53306 11.3762 6.12376ZM10.1198 6.12376C10.1198 5.61744 10.1198 5.12988 10.1198 4.63294C10.1198 4.36103 10.1198 4.07974 10.0823 3.8172C9.88542 2.51391 8.56337 1.56691 7.26945 1.78256C6.00365 1.98884 5.14104 3.00147 5.13166 4.28602C5.13166 4.84859 5.13166 5.42054 5.13166 5.98312C5.13166 6.03 5.13166 6.0675 5.13166 6.11438H10.1198V6.12376ZM6.99754 11.7401C6.99754 11.8151 6.99754 11.8901 6.99754 11.9558C6.99754 12.1152 6.99754 12.2652 6.99754 12.4246C7.01629 12.7434 7.2882 12.9965 7.60699 12.9965C7.93516 12.9965 8.22582 12.7434 8.2352 12.4246C8.24458 11.9933 8.24458 11.5526 8.2352 11.1213C8.2352 10.9994 8.2727 10.9338 8.36647 10.8588C8.8259 10.5212 8.9853 9.93051 8.76965 9.40544C8.55399 8.88037 8.01955 8.56158 7.45697 8.63659C6.94128 8.70223 6.5381 9.05852 6.40683 9.56484C6.27557 10.0618 6.45371 10.5681 6.88502 10.8775C6.96941 10.9338 6.99754 10.9994 6.99754 11.0932C6.99754 11.3088 6.99754 11.5245 6.99754 11.7401Z" fill="#03045E"/>
</svg>
