<svg width="244" height="117" viewBox="0 0 244 117" fill="none" xmlns="http://www.w3.org/2000/svg">
<g clip-path="url(#clip0_727_195)">
<path d="M155.58 112.57C155.28 115.07 159.06 115.46 160.51 115.77C165.66 116.87 170.89 115.98 176.04 115.26C176.62 115.13 177.21 115.01 177.79 114.91C183.16 113.96 188.42 115.63 193.77 115.82C198.22 115.98 202.7 115.9 207.13 115.24C207.84 115.13 209.06 115.02 209.51 114.03C209.96 113.03 209.49 112.26 208.84 111.92C205.68 110.27 202.23 110.27 198.93 110.1C192.2 109.75 185.56 112.08 178.85 111.49C177.36 111.36 175.88 111.01 174.4 110.68C173.91 110.57 173.41 110.46 172.92 110.37C170.1 109.82 167.23 109.73 164.38 109.92C162.92 110.01 161.48 110.16 160.03 110.39C158.84 110.57 157.24 110.6 156.23 111.41C155.85 111.72 155.65 112.13 155.59 112.58L155.58 112.57Z" fill="#03045E"/>
<path d="M190.37 110.06C190.57 109.01 190.76 107.95 190.97 106.9C191.07 106.37 191.17 105.85 191.27 105.32C191.37 104.79 191.47 104.27 191.57 103.74C192.36 99.59 192.99 96.1 193.54 92.55C193.84 90.62 194.11 88.7 194.33 86.87C194.44 85.92 194.54 84.97 194.64 84.04C194.66 83.92 194.66 83.78 194.66 83.68C194.75 82.92 194.8 82.15 194.85 81.4V81.31C194.92 80.39 195.34 79.81 195.94 79.79C196.15 79.77 196.38 79.88 196.57 80.08C196.89 80.4 197.06 80.88 197.03 81.34C196.93 82.67 196.84 83.75 196.74 84.75C196.64 85.8 196.52 86.91 196.36 88.13C195.58 94.45 194.39 100.74 193.24 106.82C193.15 107.29 193.06 107.76 192.97 108.24C193.22 108.1 193.48 107.99 193.75 107.89C194.95 107.47 196.38 107.55 197.47 108.21C198.54 108.86 199.56 110.37 198.89 111.62C198.55 112.25 197.78 112.56 197.12 112.73C196.42 112.91 195.68 112.94 194.96 112.88C194.27 112.81 193.57 112.68 192.89 112.54C191.75 112.22 189.94 111.95 190.37 110.07V110.06Z" fill="#DBFF00"/>
<path d="M174.98 110.07C174.78 109.02 174.58 107.97 174.38 106.92L173.79 103.77C173.12 100.21 172.42 96.39 171.83 92.61C171.52 90.66 171.27 88.75 171.04 86.94C170.93 86.04 170.83 85.09 170.73 84.13C170.73 83.94 170.71 83.84 170.7 83.77L170.67 83.51C170.65 83.32 170.63 83.13 170.62 82.95V82.83C170.57 82.36 170.54 81.89 170.5 81.41L170.48 81.29C170.39 80.47 169.98 79.95 169.41 79.92H169.38C169.18 79.92 168.96 80.02 168.77 80.21C168.46 80.52 168.29 80.99 168.33 81.43C168.43 82.73 168.52 83.8 168.62 84.82C168.72 85.84 168.84 86.95 169 88.19C169.76 94.44 170.94 100.67 172.09 106.7L172.12 106.86C172.21 107.31 172.29 107.77 172.38 108.22C172.13 108.08 171.87 107.97 171.6 107.87C170.4 107.45 168.98 107.53 167.89 108.19C166.82 108.84 165.81 110.34 166.47 111.59C166.81 112.22 167.58 112.53 168.24 112.7C168.94 112.88 169.67 112.91 170.39 112.84C171.08 112.77 171.77 112.64 172.46 112.5C173.02 112.38 175.53 111.93 174.99 110.04L174.98 110.07Z" fill="#DBFF00"/>
<path d="M37.98 112.57C37.68 115.07 41.46 115.46 42.91 115.77C48.06 116.87 53.29 115.98 58.44 115.26C59.02 115.13 59.61 115.01 60.19 114.91C65.56 113.96 70.82 115.63 76.17 115.82C80.62 115.98 85.1 115.9 89.53 115.24C90.24 115.13 91.46 115.02 91.91 114.03C92.36 113.03 91.89 112.26 91.24 111.92C88.08 110.27 84.63 110.27 81.33 110.1C74.6 109.75 67.96 112.08 61.25 111.49C59.76 111.36 58.28 111.01 56.8 110.68C56.31 110.57 55.81 110.46 55.32 110.37C52.5 109.82 49.63 109.73 46.78 109.92C45.32 110.01 43.88 110.16 42.43 110.39C41.24 110.57 39.64 110.6 38.63 111.41C38.25 111.72 38.05 112.13 37.99 112.58L37.98 112.57Z" fill="#03045E"/>
<path d="M57.3799 110.07C57.1799 109.02 56.9799 107.97 56.7799 106.92L56.1899 103.77C55.5199 100.21 54.8199 96.39 54.2299 92.61C53.9199 90.66 53.6699 88.75 53.4399 86.94C53.3299 86.04 53.2299 85.09 53.1299 84.13C53.1299 83.94 53.1099 83.84 53.0999 83.77L53.0699 83.51C53.0499 83.32 53.0299 83.13 53.0199 82.95V82.83C52.9699 82.36 52.9399 81.89 52.8999 81.41L52.8799 81.29C52.7899 80.47 52.3799 79.95 51.8099 79.92H51.7799C51.5799 79.92 51.3599 80.02 51.1699 80.21C50.8599 80.52 50.6899 80.99 50.7299 81.43C50.8299 82.73 50.9199 83.8 51.0199 84.82C51.1199 85.84 51.2399 86.95 51.3999 88.19C52.1599 94.44 53.3399 100.67 54.4899 106.7L54.5199 106.86C54.6099 107.31 54.6899 107.77 54.7799 108.22C54.5299 108.08 54.2699 107.97 53.9999 107.87C52.7999 107.45 51.3799 107.53 50.2899 108.19C49.2199 108.84 48.2099 110.34 48.8699 111.59C49.2099 112.22 49.9799 112.53 50.6399 112.7C51.3399 112.88 52.0699 112.91 52.7899 112.84C53.4799 112.77 54.1699 112.64 54.8599 112.5C55.4199 112.38 57.9299 111.93 57.3899 110.04L57.3799 110.07Z" fill="#DBFF00"/>
<path d="M72.7601 110.06C72.9601 109.01 73.1501 107.95 73.3601 106.9C73.4601 106.37 73.5601 105.85 73.6601 105.32C73.7601 104.79 73.8601 104.27 73.9601 103.74C74.7501 99.59 75.3801 96.1 75.9301 92.55C76.2301 90.62 76.5001 88.7 76.7201 86.87C76.8301 85.92 76.9301 84.97 77.0301 84.04C77.0501 83.92 77.0501 83.78 77.0501 83.68C77.1401 82.92 77.1901 82.15 77.2401 81.4V81.31C77.3101 80.39 77.7301 79.81 78.3301 79.79C78.5401 79.77 78.7701 79.88 78.9601 80.08C79.2801 80.4 79.4501 80.88 79.4201 81.34C79.3201 82.67 79.2301 83.75 79.1301 84.75C79.0301 85.8 78.9101 86.91 78.7501 88.13C77.9701 94.45 76.7801 100.74 75.6301 106.82C75.5401 107.29 75.4501 107.76 75.3601 108.24C75.6101 108.1 75.8701 107.99 76.1401 107.89C77.3401 107.47 78.7701 107.55 79.8601 108.21C80.9301 108.86 81.9501 110.37 81.2801 111.62C80.9401 112.25 80.1701 112.56 79.5101 112.73C78.8101 112.91 78.0701 112.94 77.3501 112.88C76.6601 112.81 75.9601 112.68 75.2801 112.54C74.1401 112.22 72.3301 111.95 72.7601 110.07V110.06Z" fill="#DBFF00"/>
<path d="M22.2799 62.9282C22.0899 62.7382 21.8499 62.6382 21.5999 62.6382C21.0199 62.6382 20.4199 62.6182 19.8299 62.5482C19.5399 62.5182 19.2499 62.4782 18.9599 62.4382C18.8199 62.4282 18.6799 62.3982 18.5499 62.3782L18.2299 62.3282C17.1099 62.0982 15.9799 61.7582 14.8699 61.3082C14.5799 61.1982 14.2899 61.0682 14.0699 60.9582L13.7999 60.8282C13.6699 60.7682 13.5299 60.6982 13.3999 60.6282C12.8799 60.3582 12.3699 60.0582 11.8699 59.7282C11.3599 59.3982 10.8699 59.0482 10.4299 58.6982C10.3299 58.6182 10.2099 58.5282 10.0999 58.4382L9.84993 58.2282C9.63993 58.0482 9.43993 57.8682 9.23993 57.6782L9.19993 57.6482C8.73993 57.2082 8.27993 56.7282 7.82993 56.2082C7.61993 55.9582 7.40993 55.6982 7.21993 55.4582C7.16993 55.3882 7.11994 55.3182 7.06993 55.2482C7.01993 55.1782 6.96993 55.1082 6.91993 55.0382L6.74993 54.7982C6.85993 54.6582 6.93993 54.5382 7.01993 54.4182C7.72993 53.5682 7.86993 52.2282 7.34993 51.1682C6.99993 50.4782 6.45993 49.8682 5.83993 49.4882C5.88994 48.7982 5.90993 48.0582 5.89993 47.3082V47.0982C5.89993 46.3382 5.90993 45.3782 5.62993 44.8482C5.39993 44.4282 4.92993 44.2682 4.47993 44.4582C3.96993 44.6782 3.85993 45.1282 3.82993 45.5282C3.73993 46.6282 3.89993 47.7282 4.06993 48.7882C4.02993 48.7282 3.98993 48.6682 3.94993 48.6082C3.30993 47.6782 2.64993 46.7182 1.79993 45.9382C1.50993 45.6782 1.10993 45.4082 0.589935 45.6082C0.139935 45.7882 -0.0800654 46.1982 0.0299346 46.6682C0.139935 47.1682 0.489935 47.5282 0.829935 47.8782C0.909935 47.9582 0.979935 48.0282 1.04993 48.1082C1.17993 48.2582 1.31993 48.3982 1.44993 48.5482C1.77993 48.8982 2.10993 49.2682 2.44993 49.6182C1.94993 49.9482 1.50993 50.3982 1.16993 50.9382C0.539935 51.9682 0.869935 53.4282 1.51993 54.3282C1.69993 54.5682 1.89993 54.7882 2.12993 54.9782C2.37993 55.1682 2.64993 55.3282 2.92993 55.4382C3.28993 55.5782 3.66993 55.6282 4.04993 55.6682C4.36994 55.7082 4.64993 55.7382 4.89993 55.8182C5.06993 56.0582 5.23993 56.2882 5.39993 56.5182C6.77993 58.3482 8.41993 59.9082 10.2699 61.1782C12.3799 62.6182 14.7699 63.6782 17.1699 64.2282C18.6299 64.5582 20.0799 64.7282 21.4999 64.7282H21.5799C22.0599 64.6782 22.5699 64.3182 22.5799 63.7282C22.5799 63.4382 22.4599 63.1282 22.2499 62.9182L22.2799 62.9282Z" fill="#DBFF00"/>
<path d="M243.083 40.9151C242.42 40.2034 241.561 39.7439 240.672 39.6268C240.45 39.6 240.249 39.592 240.06 39.6033C240.316 38.6964 240.53 37.5816 240.131 36.6037C239.907 36.0461 239.368 35.4171 238.603 35.1824C238.123 35.0308 237.699 35.3166 237.557 35.7859C237.431 36.1942 237.506 36.7708 237.573 37.2176C237.58 37.5076 237.608 37.8065 237.625 38.096C237.642 38.3755 237.659 38.665 237.676 38.9445C237.69 39.675 237.681 40.527 237.469 41.3411C237.47 41.3611 237.065 42.4573 237.058 42.5177C236.972 42.7533 236.879 43.0394 236.807 43.3342L236.81 43.3841C236.659 44.3749 237.216 45.3233 238.304 45.9194L238.269 46.0017C238.225 46.1145 238.171 46.2179 238.118 46.3313L238.056 46.4652C237.904 46.7748 237.76 47.0439 237.606 47.3136C237.289 47.8736 236.932 48.4459 236.544 48.99C236.377 49.2204 236.211 49.4507 236.025 49.6923L235.82 49.955C235.746 50.0496 235.671 50.1342 235.596 50.2188L235.559 50.2711C235.203 50.6931 234.789 51.1287 234.343 51.556C233.86 52.0257 233.432 52.402 233.021 52.7371C232.964 52.7806 232.916 52.8235 232.859 52.867C232.792 52.9211 232.725 52.9752 232.668 53.0187L232.428 53.2033C232.208 53.3668 231.977 53.5309 231.726 53.6961C230.724 54.3572 229.685 54.9102 228.64 55.3534L228.337 55.4817C228.278 55.5053 228.22 55.5288 228.16 55.5424C228.082 55.5672 228.013 55.5913 227.945 55.6254L227.788 55.6749C227.562 55.7485 227.346 55.8216 227.12 55.8952C226.628 56.0448 226.085 56.1875 225.412 56.3279C225.175 56.3722 224.963 56.5151 224.815 56.7243L224.787 56.7561C224.621 57.0064 224.56 57.3206 224.627 57.6071C224.752 58.1907 225.329 58.4467 225.806 58.3881L225.896 58.3827C227.272 58.1001 228.657 57.6565 230.023 57.0438C232.267 56.038 234.401 54.5379 236.186 52.7181C237.772 51.1004 239.074 49.2494 240.044 47.2078C240.177 46.9293 240.293 46.682 240.389 46.4558C240.839 46.4389 241.235 46.3552 241.597 46.2033C242.583 45.7736 243.342 44.8967 243.64 43.8571C243.757 43.4694 243.793 43.0565 243.749 42.6684C243.728 41.9784 243.511 41.3703 243.105 40.9338L243.083 40.9151Z" fill="#DBFF00"/>
<path d="M131.21 19.5795V19.5595C131.08 19.3895 130.86 19.2695 130.59 19.2995C129.48 19.4595 128.65 20.1895 128.04 20.8695C127.43 21.5295 126.8 22.3895 126.7 23.3695C126.67 23.6795 126.88 23.8795 127.08 23.9595C127.28 24.0395 127.53 24.0395 127.73 23.9295C128.98 23.2295 129.81 22.1395 130.59 21.1095C130.81 20.8195 131.02 20.5395 131.24 20.2695C131.44 20.0295 131.36 19.7595 131.23 19.5895L131.21 19.5795ZM127.58 23.6995L127.61 23.7495L127.58 23.6995ZM130.41 20.9795H130.39L130.43 20.9995H130.44L130.4 20.9795H130.41Z" fill="#03045E"/>
<path d="M117.64 23.4007C116.94 22.1507 115.85 21.3207 114.82 20.5308C114.53 20.3108 114.25 20.1007 113.98 19.8807C113.74 19.6807 113.47 19.7607 113.3 19.8907H113.28V19.9107C113.11 20.0407 112.99 20.2608 113.02 20.5308L113.26 20.5007L113.02 20.5308C113.18 21.6508 113.91 22.4707 114.58 23.0907C115.24 23.7007 116.1 24.3307 117.08 24.4307C117.39 24.4608 117.59 24.2507 117.67 24.0507C117.75 23.8507 117.75 23.6007 117.64 23.4007ZM114.75 22.9007L114.72 22.9307L114.75 22.9007Z" fill="#03045E"/>
<path d="M123.32 17.9599L123.07 17.9799L123.32 17.9599C123.27 17.4699 123.23 16.9899 123.2 16.5099C123.2 16.3299 123.12 16.1799 123 16.0799C122.89 15.9899 122.77 15.9499 122.64 15.9399H122.62H122.6C122.34 15.8899 122.05 15.9699 121.84 16.2299C120.92 17.3799 120.77 18.7999 120.77 20.0099C120.77 21.2199 120.93 22.5899 121.7 23.6099C121.92 23.9099 122.26 23.9099 122.51 23.8099C122.75 23.7199 122.99 23.5099 123.07 23.2499L122.84 23.1699L123.08 23.2499C123.66 21.4699 123.49 19.6799 123.33 17.9799L123.32 17.9599Z" fill="#03045E"/>
<path d="M123.06 31.4901L123.04 31.4001C122.95 30.6201 122.72 29.6301 122.12 29.1901C121.68 28.8701 121.03 28.85 120.38 29.14C119.56 29.51 119.23 30.32 119.04 30.98C118.78 31.84 118.76 32.79 118.98 33.78C119.09 34.29 119.25 34.7801 119.49 35.3301C119.54 35.4501 119.59 35.57 119.63 35.69V35.7201C119.7 35.8801 119.77 36.07 119.85 36.25C119.83 36.31 119.81 36.36 119.8 36.41L119.71 36.75L119.58 37.19C119.49 37.47 119.4 37.75 119.3 38.0201C118.66 39.88 117.55 41.58 116.01 43.07L115.22 43.76C114.08 44.75 112.65 45.5301 111.4 46.16C110.47 46.6 109.46 47.0001 108.32 47.3801C107.85 47.5001 107.56 47.94 107.66 48.39C107.77 48.79 108.12 49.01 108.62 49.01C108.78 49.01 108.95 48.99 109.11 48.94C114.81 47.14 119.06 43.8301 120.76 39.8601C121.19 38.9201 121.55 37.91 121.82 36.87C122.34 36.17 122.75 35.3101 122.91 34.5601C123.11 33.6101 123.17 32.5101 123.07 31.4701L123.06 31.4901Z" fill="#DBFF00"/>
<path d="M136.939 47.6598H136.909C135.819 47.2998 134.869 46.9298 133.999 46.5298C132.769 45.8998 131.469 45.1898 130.389 44.1898L129.639 43.5098C128.189 42.0198 127.119 40.2098 126.519 38.2698C126.429 38.0098 126.339 37.7098 126.259 37.3898V37.3398C126.209 37.1998 126.169 37.0598 126.139 36.9198L126.059 36.5598C126.029 36.4298 125.979 36.3098 125.929 36.2298C126.499 34.9098 126.659 33.4898 126.409 32.1298C126.249 31.2498 125.709 29.1798 124.049 28.8798C123.359 28.7598 122.839 28.9398 122.479 29.4098C121.439 30.7698 122.149 34.2398 122.669 35.3498C122.959 35.9698 123.329 36.4298 123.799 36.7598C123.859 36.7998 123.929 36.8398 123.989 36.8698H124.009C124.279 38.0998 124.629 39.2398 125.069 40.2698C126.679 44.4398 130.709 47.7398 136.139 49.3398C136.259 49.3698 136.379 49.3798 136.509 49.3798C137.019 49.3798 137.399 49.1098 137.519 48.6498C137.609 48.1998 137.339 47.7698 136.909 47.6498L136.939 47.6598Z" fill="#DBFF00"/>
<path d="M65.49 0.0500016C40.35 -1.12 19.01 18.31 17.84 43.46C16.67 68.6 36.1 89.94 61.25 91.11C86.39 92.28 107.73 72.85 108.9 47.7C110.07 22.56 90.63 1.22 65.49 0.0500016Z" fill="#DBFF00"/>
<path d="M65.49 0.0500016C40.35 -1.12 19.01 18.31 17.84 43.46C16.67 68.6 36.1 89.94 61.25 91.11C86.39 92.28 107.73 72.85 108.9 47.7C110.07 22.56 90.63 1.22 65.49 0.0500016Z" fill="url(#paint0_radial_727_195)"/>
<path d="M28.4 38.36C27.75 34.65 27.83 33.12 28.01 30.07C28.24 28.47 29.34 26.82 30.18 26.35C31.13 25.87 31.07 26.85 31 28.2C36.17 19 44.73 12.81 54.51 11.23C56.96 10.88 59.47 10.87 62 11.2C69.92 12.24 77.84 16.6 82.7 22.59C83.92 24.08 85.29 25.79 84.41 26.94C83.19 28.53 80.97 27.49 80.01 26.1C74.41 17.9 64.59 13.24 55 14.19C52.04 14.49 47.46 15.57 42.48 19.06C39.28 21.3 37.1 24.52 34.61 27.43C34.58 27.46 34.2 27.95 33.53 29.03L33.72 28.89L34.17 28.56C34.32 28.46 34.71 28.19 35.18 28.16C36.57 28.1 36.86 30.17 35.7 31.91C35.59 32.08 35.28 32.5 34.82 32.84C31.63 35.18 30.28 36.5 28.41 38.34L28.39 38.37L28.4 38.36ZM62.93 41.43C58.89 38.08 60.25 31.23 66.44 30.53C69.99 30.3 73.11 32.94 73.38 36.4C73.81 41.87 67.27 45.03 62.93 41.44V41.43ZM40.41 45.75C36.39 43.3 37.04 35.61 42.57 33.97C45.38 33.3 47.97 35.16 48.6 38.29C49.67 43.6 44.54 48.27 40.41 45.75ZM87.07 55.94C86.7 56.41 83.85 58.73 83.36 54.18C81.01 57.47 68.41 73.61 50.7 69.14C37.8 65.88 28.04 54.98 32.03 52.55C32.29 52.44 33.2 52.19 34.13 53.56C40.76 63.37 51.51 65.73 56.82 65.59C70.23 65.22 78.82 52.44 79.18 51.9C79.22 51.84 79.26 51.78 79.29 51.73C79.37 51.6 79.48 51.43 79.59 51.27L78.58 51.58C77.9 51.77 77.27 51.71 76.7 51.39C75.16 50.54 74.79 48.15 76.52 46.78C76.73 46.61 77.08 46.34 86.39 43.74C87.38 48.13 87.51 50.01 87.79 53.77C87.79 54.08 87.79 55.03 87.08 55.94H87.07Z" fill="#2D00F7"/>
<path d="M183.05 0.029991C157.89 -0.700009 136.9 19.1 136.17 44.26C135.44 69.42 155.24 90.41 180.41 91.14C205.57 91.87 226.56 72.07 227.29 46.91C228.02 21.75 208.21 0.759991 183.05 0.029991Z" fill="#DBFF00"/>
<path d="M183.05 0.029991C157.89 -0.700009 136.9 19.1 136.17 44.26C135.44 69.42 155.24 90.41 180.41 91.14C205.57 91.87 226.56 72.07 227.29 46.91C228.02 21.75 208.21 0.759991 183.05 0.029991Z" fill="url(#paint1_radial_727_195)"/>
<path d="M146.64 38.99C145.92 35.29 145.98 33.77 146.11 30.71C146.3 29.11 147.38 27.44 148.21 26.95C149.16 26.45 149.11 27.43 149.05 28.79C154.06 19.5 162.51 13.16 172.25 11.4C174.69 11 177.21 10.95 179.73 11.24C187.66 12.14 195.66 16.36 200.63 22.26C201.87 23.74 203.28 25.41 202.42 26.57C201.24 28.17 198.99 27.18 198.01 25.81C192.26 17.72 182.36 13.22 172.79 14.34C169.84 14.69 165.28 15.85 160.36 19.43C157.2 21.73 155.08 24.98 152.64 27.94C152.61 27.97 152.24 28.47 151.59 29.56L151.77 29.42L152.22 29.08C152.36 28.98 152.76 28.7 153.22 28.67C154.61 28.59 154.93 30.65 153.81 32.41C153.7 32.58 153.41 33.01 152.95 33.36C149.8 35.76 148.48 37.11 146.64 38.98V39V38.99ZM181.22 41.45C177.12 38.18 178.36 31.3 184.54 30.49C188.09 30.2 191.25 32.78 191.58 36.24C192.1 41.7 185.62 44.97 181.22 41.46V41.45ZM158.79 46.17C154.72 43.79 155.25 36.09 160.74 34.35C163.53 33.63 166.17 35.45 166.85 38.56C168.01 43.85 162.97 48.61 158.79 46.16V46.17ZM205.63 55.54C205.27 56.02 202.46 58.38 201.9 53.85C199.6 57.18 187.3 73.54 169.51 69.38C156.55 66.35 146.6 55.62 150.55 53.12C150.8 53 151.72 52.73 152.67 54.09C159.47 63.78 170.26 65.96 175.57 65.72C188.97 65.11 197.34 52.19 197.68 51.63C197.72 51.57 197.76 51.51 197.79 51.46C197.87 51.33 197.98 51.16 198.08 51L197.08 51.33C196.4 51.54 195.77 51.49 195.19 51.18C193.63 50.35 193.22 47.97 194.93 46.57C195.13 46.4 195.48 46.12 204.74 43.36C205.8 47.73 205.98 49.61 206.31 53.35C206.31 53.66 206.33 54.61 205.64 55.53L205.63 55.54Z" fill="#2D00F7"/>
</g>
<defs>
<radialGradient id="paint0_radial_727_195" cx="0" cy="0" r="1" gradientUnits="userSpaceOnUse" gradientTransform="translate(63.37 45.58) rotate(90) scale(45.5802 45.5802)">
<stop offset="0.666667" stop-color="#DBFF00" stop-opacity="0"/>
<stop offset="1" stop-color="#D0F200"/>
</radialGradient>
<radialGradient id="paint1_radial_727_195" cx="0" cy="0" r="1" gradientUnits="userSpaceOnUse" gradientTransform="translate(181.73 45.585) rotate(90) scale(45.5746 45.5795)">
<stop offset="0.666667" stop-color="#DBFF00" stop-opacity="0"/>
<stop offset="1" stop-color="#D0F200"/>
</radialGradient>
<clipPath id="clip0_727_195">
<rect width="243.95" height="116.29" fill="white"/>
</clipPath>
</defs>
</svg>
