<svg width="144" height="122" viewBox="0 0 144 122" fill="none" xmlns="http://www.w3.org/2000/svg">
<g clip-path="url(#clip0_727_207)">
<path d="M32.3801 117.66C32.0901 120.08 35.7501 120.47 37.1501 120.76C42.1401 121.82 47.2101 120.96 52.2001 120.27C52.7701 120.14 53.3301 120.02 53.9001 119.93C59.1001 119.01 64.2001 120.63 69.3901 120.81C73.7001 120.96 78.0401 120.89 82.3401 120.24C83.0201 120.14 84.2101 120.03 84.6501 119.06C85.0901 118.09 84.6301 117.35 84.0001 117.02C80.9301 115.42 77.6001 115.42 74.3901 115.25C67.8701 114.91 61.4301 117.17 54.9301 116.6C53.4901 116.47 52.0501 116.14 50.6201 115.81C50.1501 115.7 49.6701 115.6 49.1801 115.51C46.4501 114.98 43.6601 114.89 40.9001 115.07C39.4901 115.16 38.0901 115.31 36.6801 115.53C35.5201 115.71 33.9801 115.73 33.0001 116.52C32.6301 116.82 32.4301 117.22 32.3801 117.65V117.66Z" fill="#03045E"/>
<path d="M65.9798 115.31C66.1798 114.26 66.3698 113.2 66.5798 112.15C66.6798 111.62 66.7798 111.1 66.8798 110.57C66.9798 110.04 67.0798 109.52 67.1798 108.99C67.9698 104.84 68.5998 101.35 69.1498 97.8C69.4498 95.87 69.7198 93.95 69.9398 92.12C70.0498 91.17 70.1498 90.22 70.2498 89.29C70.2698 89.17 70.2698 89.03 70.2698 88.93C70.3598 88.17 70.4098 87.4 70.4598 86.65V86.56C70.5298 85.64 70.9498 85.06 71.5498 85.04C71.7598 85.02 71.9898 85.13 72.1798 85.33C72.4998 85.65 72.6698 86.13 72.6398 86.59C72.5398 87.92 72.4498 89 72.3498 90C72.2498 91.05 72.1298 92.16 71.9698 93.38C71.1898 99.7 69.9998 105.99 68.8498 112.07C68.7598 112.54 68.6698 113.01 68.5798 113.49C68.8298 113.35 69.0898 113.24 69.3598 113.14C70.5598 112.72 71.9898 112.8 73.0798 113.46C74.1498 114.11 75.1698 115.62 74.4998 116.87C74.1598 117.5 73.3898 117.81 72.7298 117.98C72.0298 118.16 71.2898 118.19 70.5698 118.13C69.8798 118.06 69.1798 117.93 68.4998 117.79C67.3598 117.47 65.5498 117.2 65.9798 115.32V115.31Z" fill="#DBFF00"/>
<path d="M51.2801 115.5C51.0801 114.45 50.8801 113.4 50.6801 112.35L50.0901 109.2C49.4201 105.64 48.7201 101.82 48.1301 98.04C47.8201 96.09 47.5701 94.18 47.3401 92.37C47.2301 91.47 47.1301 90.52 47.0301 89.56C47.0301 89.37 47.0101 89.27 47.0001 89.2L46.9701 88.94C46.9501 88.75 46.9301 88.56 46.9201 88.38V88.26C46.8701 87.79 46.8401 87.32 46.8001 86.84L46.7801 86.72C46.6901 85.9 46.2801 85.38 45.7101 85.35H45.6801C45.4801 85.35 45.2601 85.45 45.0701 85.64C44.7601 85.95 44.5901 86.42 44.6301 86.86C44.7301 88.16 44.8201 89.23 44.9201 90.25C45.0201 91.27 45.1401 92.38 45.3001 93.62C46.0601 99.87 47.2401 106.1 48.3901 112.13L48.4201 112.29C48.5101 112.74 48.5901 113.2 48.6801 113.65C48.4301 113.51 48.1701 113.4 47.9001 113.3C46.7001 112.88 45.2801 112.96 44.1901 113.62C43.1201 114.27 42.1101 115.77 42.7701 117.02C43.1101 117.65 43.8801 117.96 44.5401 118.13C45.2401 118.31 45.9701 118.34 46.6901 118.27C47.3801 118.2 48.0701 118.07 48.7601 117.93C49.3201 117.81 51.8301 117.36 51.2901 115.47L51.2801 115.5Z" fill="#DBFF00"/>
<path d="M17.7899 69.13C17.6499 68.88 17.4299 68.71 17.1399 68.65C16.8799 68.6 16.5899 68.65 16.3499 68.77C14.7999 69.59 13.2799 70.65 11.8199 71.91C9.44992 73.97 7.40992 76.57 5.91992 79.44C4.39992 82.35 3.44992 85.5 3.08992 88.78C3.08992 88.89 3.08992 88.99 3.11992 89.1C1.93992 89.5 0.879921 90.41 0.379921 91.52C-0.260079 92.93 -0.130079 94.68 0.909921 95.87C1.87992 96.99 3.49992 97.29 4.79992 96.62C5.89992 96.06 6.45992 94.86 6.61992 93.68C6.79992 93.68 6.96992 93.64 7.12992 93.57C7.48992 93.43 7.80992 93.21 7.99992 92.85C8.19992 92.47 8.16992 92.06 8.04992 91.65C7.82992 90.86 7.26992 90.26 6.61992 89.8C6.16992 89.47 5.66992 89.21 5.15992 88.98C5.17992 88.92 5.18992 88.85 5.18992 88.79L5.20992 88.65C5.20992 88.65 5.20992 88.62 5.20992 88.61C5.20992 88.56 5.22992 88.51 5.22992 88.46C5.22992 88.41 5.22992 88.35 5.25992 88.3L5.35992 87.64C5.43992 87.18 5.50992 86.8 5.60992 86.41C5.79992 85.54 6.02992 84.7 6.28992 83.93C6.41992 83.57 6.53992 83.21 6.67992 82.85C6.67992 82.82 6.69992 82.8 6.70992 82.77C6.72992 82.74 6.73992 82.71 6.74992 82.67L6.82992 82.46C6.86992 82.38 6.90992 82.28 6.93992 82.2C6.96992 82.12 7.00992 82.04 7.04992 81.96C7.34992 81.28 7.68992 80.59 8.06992 79.89C8.45992 79.21 8.85992 78.56 9.27992 77.93C9.38992 77.77 9.49992 77.61 9.61992 77.45L9.64992 77.4C9.64992 77.4 9.71992 77.32 9.74992 77.26C9.77992 77.23 9.79992 77.19 9.83992 77.12C10.0399 76.86 10.2799 76.55 10.5399 76.23C11.5199 75.05 12.5999 73.97 13.7499 73.01L13.8399 72.93C13.8399 72.93 13.8799 72.9 13.9099 72.87C13.9099 72.87 13.9899 72.8 14.0399 72.77L14.0799 72.74C14.1599 72.68 14.2299 72.62 14.3099 72.57L14.5199 72.42C14.7999 72.21 15.1099 71.99 15.4399 71.76C16.0799 71.33 16.7499 70.93 17.4199 70.58L17.8599 70.34H17.6999C17.7799 70.25 17.8299 70.14 17.8699 70.02C17.9499 69.73 17.9199 69.4 17.7799 69.13H17.7899Z" fill="#DBFF00"/>
<path d="M55.12 5.07001C29.92 5.07001 9.5 25.5 9.5 50.69C9.5 75.88 29.93 96.31 55.12 96.31C80.31 96.31 100.74 75.88 100.74 50.69C100.74 25.5 80.32 5.07001 55.12 5.07001Z" fill="#DBFF00"/>
<path d="M55.12 5.07001C29.92 5.07001 9.5 25.5 9.5 50.69C9.5 75.88 29.93 96.31 55.12 96.31C80.31 96.31 100.74 75.88 100.74 50.69C100.74 25.5 80.32 5.07001 55.12 5.07001Z" fill="url(#paint0_radial_727_207)"/>
<path d="M19.8201 45.1C18.9901 41.43 19.0101 39.89 19.0401 36.84C19.1901 35.23 20.2101 33.54 21.0301 33.01C21.9701 32.49 21.9501 33.47 21.9301 34.83C26.6701 25.38 34.9501 18.8 44.6401 16.77C47.0701 16.31 49.5901 16.18 52.1201 16.39C60.0801 17.07 68.2101 21.05 73.3501 26.82C74.6301 28.26 76.0901 29.9 75.2701 31.09C74.1301 32.73 71.8501 31.8 70.8301 30.46C64.8501 22.53 54.8101 18.31 45.2701 19.72C42.3201 20.15 37.8001 21.45 32.9801 25.18C29.8901 27.57 27.8601 30.89 25.5001 33.92C25.4701 33.95 25.1101 34.46 24.4901 35.58L24.6701 35.43L25.1101 35.08C25.2501 34.97 25.6301 34.68 26.1101 34.64C27.5001 34.51 27.8801 36.57 26.8001 38.37C26.7001 38.54 26.4101 38.98 25.9601 39.34C22.8801 41.82 21.5901 43.22 19.8101 45.14V45.12L19.8201 45.1ZM54.4801 46.56C50.2801 43.4 51.3201 36.48 57.4801 35.49C61.0201 35.1 64.2601 37.59 64.6901 41.03C65.3701 46.48 58.9801 49.93 54.4801 46.56ZM32.1701 51.93C28.0401 49.67 28.3301 41.94 33.7801 40.05C36.5601 39.26 39.2401 40.99 40.0101 44.09C41.3301 49.34 36.4201 54.26 32.1701 51.94V51.93ZM79.3001 59.93C78.9501 60.42 76.2101 62.86 75.5201 58.34C73.3201 61.74 61.4801 78.46 43.5601 74.81C30.5101 72.15 20.2401 61.71 24.1201 59.09C24.3701 58.96 25.2801 58.67 26.2701 60C33.3601 69.5 44.2101 71.36 49.5101 70.97C62.9001 69.97 70.8901 56.8 71.2301 56.24C71.2601 56.18 71.3001 56.12 71.3301 56.07C71.4101 55.94 71.5201 55.77 71.6101 55.6L70.6101 55.96C69.9401 56.19 69.3101 56.15 68.7201 55.87C67.1301 55.08 66.6601 52.72 68.3201 51.27C68.5201 51.09 68.8601 50.81 78.0401 47.77C79.2301 52.11 79.4601 53.99 79.9101 57.73C79.9301 58.04 79.9601 58.99 79.3001 59.93Z" fill="#2D00F7"/>
<path d="M139.26 0.610014C136.64 -0.559986 132.85 0.310014 130.17 0.410014C124.8 0.610014 89.0198 2.23001 82.9898 3.70001C81.8698 3.97001 80.7398 4.36001 79.8898 5.13001C78.8598 6.04001 78.2998 7.41001 78.0898 8.78001C77.6198 11.86 78.2898 15.37 78.6098 18.45C78.6798 19.14 78.7598 19.83 78.8498 20.51C79.2098 23.46 79.6798 26.4 80.1398 29.34C80.4998 31.65 80.5398 34.27 82.3098 35.98C83.4298 37.08 84.9998 37.56 86.5298 37.8C89.9198 38.33 93.2698 37.78 96.6798 37.62L109.1 37L133.51 35.8C138.81 35.54 143.82 33.88 143.83 27.58C143.83 23.37 143.62 19.14 143.5 14.93C143.38 10.81 143.74 2.60001 139.27 0.600014L139.26 0.610014Z" fill="#03045E"/>
<path d="M98.09 17.47C97.6 17.5 97.17 17.41 96.79 17.21C96.41 17 96.11 16.72 95.88 16.36C95.65 16 95.53 15.58 95.51 15.13L95.27 10.82L92.96 10.95L92.88 9.45999L99.17 9.11999L99.25 10.61L96.94 10.74L97.19 15.25C97.19 15.46 97.28 15.65 97.44 15.79C97.6 15.93 97.79 15.99 98 15.98L98.59 15.95L98.67 17.44L98.08 17.47H98.09ZM100.63 17.33L100.39 13.02C100.36 12.49 100.49 12.06 100.77 11.74C101.06 11.42 101.47 11.24 102.01 11.21L103.67 11.12L103.75 12.51L102.36 12.59C102.26 12.59 102.17 12.63 102.1 12.71C102.03 12.79 102 12.88 102.01 12.99L102.24 17.26L100.63 17.34V17.33ZM107.4 17.1C106.85 17.13 106.36 17.02 105.94 16.75C105.52 16.49 105.18 16.12 104.92 15.67C104.68 15.21 104.53 14.68 104.51 14.11C104.48 13.52 104.58 12.98 104.8 12.48C105.04 11.98 105.38 11.58 105.85 11.29C106.31 10.98 106.88 10.81 107.55 10.77C108.23 10.74 108.81 10.85 109.29 11.1C109.77 11.36 110.14 11.73 110.41 12.19C110.68 12.65 110.83 13.18 110.87 13.76L111.03 16.76L109.42 16.84L109.37 15.83H109.35C109.24 16.05 109.1 16.25 108.94 16.43C108.78 16.62 108.57 16.76 108.32 16.88C108.08 17 107.78 17.07 107.43 17.08L107.4 17.1ZM107.79 15.71C108.1 15.69 108.37 15.6 108.59 15.43C108.81 15.26 108.97 15.04 109.07 14.76C109.18 14.48 109.23 14.17 109.21 13.84C109.19 13.51 109.11 13.21 108.97 12.96C108.83 12.7 108.65 12.5 108.41 12.35C108.17 12.21 107.89 12.14 107.58 12.16C107.26 12.18 106.98 12.27 106.75 12.44C106.53 12.61 106.36 12.83 106.25 13.11C106.15 13.38 106.11 13.68 106.12 14.01C106.14 14.34 106.21 14.64 106.35 14.91C106.49 15.17 106.68 15.37 106.92 15.52C107.16 15.66 107.44 15.73 107.77 15.71H107.79ZM115.5 16.67C114.99 16.7 114.54 16.64 114.13 16.51C113.72 16.37 113.39 16.16 113.1 15.88C112.81 15.59 112.59 15.26 112.43 14.87C112.27 14.47 112.17 14.04 112.14 13.57C112.11 12.97 112.2 12.44 112.41 11.98C112.63 11.51 112.95 11.14 113.36 10.85C113.79 10.57 114.29 10.41 114.87 10.38C115.12 10.36 115.37 10.38 115.6 10.45C115.84 10.51 116.06 10.6 116.25 10.72C116.44 10.85 116.61 10.99 116.74 11.17L116.55 7.81999L118.17 7.73999L118.47 13.23C118.5 13.89 118.41 14.48 118.17 14.99C117.93 15.49 117.6 15.89 117.13 16.18C116.67 16.48 116.12 16.64 115.47 16.67H115.5ZM115.42 15.3C115.74 15.28 116.01 15.19 116.23 15.02C116.45 14.85 116.61 14.63 116.71 14.35C116.82 14.08 116.87 13.78 116.85 13.45C116.83 13.12 116.76 12.82 116.61 12.56C116.47 12.3 116.29 12.1 116.05 11.95C115.81 11.81 115.53 11.74 115.21 11.76C114.9 11.78 114.63 11.87 114.4 12.04C114.18 12.21 114.01 12.43 113.9 12.71C113.8 12.98 113.76 13.28 113.77 13.61C113.79 13.94 113.86 14.24 114 14.5C114.14 14.76 114.33 14.96 114.57 15.11C114.81 15.25 115.09 15.32 115.41 15.3H115.42ZM123.29 16.12C122.61 16.15 122 16.06 121.47 15.82C120.96 15.58 120.54 15.24 120.23 14.8C119.93 14.36 119.76 13.85 119.73 13.29C119.7 12.66 119.8 12.09 120.02 11.6C120.26 11.11 120.59 10.73 121.03 10.44C121.46 10.15 121.97 9.99999 122.53 9.96999C123.21 9.93999 123.76 10.05 124.19 10.31C124.63 10.57 124.96 10.94 125.19 11.41C125.41 11.87 125.54 12.4 125.57 12.97V13.26C125.57 13.36 125.57 13.44 125.54 13.5L121.47 13.72C121.55 13.96 121.66 14.16 121.82 14.32C121.99 14.48 122.18 14.59 122.42 14.67C122.66 14.74 122.93 14.76 123.21 14.75L124.89 14.66L124.97 16.05L123.27 16.14L123.29 16.12ZM121.42 12.63L123.94 12.49C123.91 12.34 123.88 12.2 123.84 12.08C123.79 11.94 123.73 11.84 123.66 11.73C123.58 11.63 123.5 11.55 123.4 11.49C123.3 11.42 123.19 11.37 123.06 11.35C122.93 11.32 122.79 11.31 122.65 11.32C122.46 11.32 122.28 11.38 122.13 11.46C121.99 11.54 121.86 11.64 121.77 11.76C121.68 11.89 121.6 12.02 121.54 12.17C121.49 12.32 121.46 12.48 121.45 12.63H121.42ZM126.95 15.91L126.71 11.6C126.68 11.07 126.8 10.64 127.09 10.32C127.38 9.99999 127.79 9.81999 128.33 9.78999L129.99 9.69999L130.07 11.09L128.68 11.17C128.58 11.17 128.49 11.21 128.42 11.29C128.35 11.37 128.32 11.46 128.33 11.57L128.56 15.84L126.95 15.92V15.91ZM89.99 30.88C89.35 30.91 88.78 30.81 88.28 30.58C87.77 30.33 87.37 29.98 87.06 29.51C86.76 29.03 86.59 28.45 86.55 27.77L86.27 22.64L87.96 22.55L88.25 27.78C88.27 28.08 88.34 28.36 88.49 28.62C88.63 28.87 88.82 29.06 89.06 29.2C89.31 29.34 89.58 29.39 89.91 29.38C90.23 29.36 90.51 29.27 90.74 29.11C90.97 28.94 91.14 28.72 91.25 28.47C91.36 28.2 91.41 27.91 91.39 27.61L91.1 22.38L92.79 22.29L93.08 27.52C93.1 27.82 93.17 28.11 93.32 28.36C93.46 28.61 93.65 28.8 93.89 28.94C94.13 29.08 94.41 29.13 94.74 29.12C95.06 29.1 95.34 29.01 95.57 28.85C95.8 28.68 95.97 28.46 96.08 28.21C96.19 27.95 96.24 27.66 96.22 27.35L95.93 22.12L97.62 22.03L97.9 27.16C97.93 27.84 97.82 28.44 97.57 28.94C97.33 29.45 96.96 29.84 96.49 30.14C96.02 30.43 95.46 30.59 94.83 30.62C94.5 30.64 94.18 30.62 93.88 30.54C93.58 30.48 93.3 30.37 93.04 30.22C92.79 30.07 92.56 29.88 92.35 29.66C92.17 29.9 91.96 30.11 91.72 30.29C91.48 30.46 91.22 30.59 90.93 30.7C90.64 30.8 90.33 30.86 90 30.88H89.99ZM102.05 30.24C101.5 30.27 101.01 30.16 100.59 29.89C100.17 29.63 99.83 29.26 99.57 28.81C99.33 28.35 99.18 27.82 99.16 27.25C99.13 26.66 99.23 26.12 99.45 25.62C99.69 25.13 100.03 24.72 100.5 24.43C100.96 24.12 101.53 23.95 102.2 23.91C102.88 23.88 103.46 23.99 103.94 24.24C104.42 24.49 104.79 24.87 105.06 25.33C105.33 25.79 105.48 26.32 105.52 26.9L105.68 29.9L104.06 29.98L104.01 28.97H103.98C103.87 29.19 103.74 29.39 103.57 29.58C103.41 29.77 103.2 29.91 102.95 30.03C102.71 30.15 102.41 30.22 102.06 30.23L102.05 30.24ZM102.44 28.84C102.75 28.82 103.02 28.73 103.24 28.56C103.46 28.39 103.62 28.17 103.72 27.89C103.83 27.61 103.88 27.3 103.85 26.97C103.83 26.64 103.76 26.34 103.61 26.09C103.48 25.83 103.29 25.63 103.05 25.48C102.81 25.34 102.53 25.27 102.22 25.29C101.9 25.31 101.62 25.4 101.39 25.57C101.17 25.74 101 25.96 100.89 26.24C100.79 26.51 100.75 26.81 100.76 27.14C100.78 27.47 100.85 27.77 100.99 28.04C101.13 28.3 101.32 28.5 101.56 28.65C101.81 28.79 102.08 28.86 102.41 28.84H102.44ZM107.32 29.82L107.13 26.36C107.1 25.86 107.2 25.41 107.4 24.98C107.61 24.56 107.93 24.21 108.36 23.95C108.79 23.68 109.31 23.53 109.92 23.49C110.54 23.46 111.08 23.55 111.52 23.77C111.98 23.99 112.33 24.3 112.58 24.7C112.83 25.1 112.98 25.54 113.01 26.04L113.2 29.5L111.59 29.58L111.4 26.12C111.38 25.88 111.32 25.66 111.19 25.47C111.06 25.27 110.9 25.12 110.68 25.01C110.48 24.9 110.25 24.86 110.01 24.87C109.76 24.87 109.54 24.95 109.34 25.08C109.15 25.21 109 25.38 108.89 25.59C108.78 25.79 108.74 26.02 108.75 26.26L108.94 29.72L107.32 29.8V29.82ZM116.94 29.3C116.41 29.33 115.98 29.2 115.65 28.9C115.34 28.61 115.16 28.2 115.13 27.68L114.82 21.86L116.44 21.78L116.75 27.56C116.75 27.66 116.79 27.75 116.87 27.82C116.95 27.89 117.05 27.91 117.15 27.91L118.46 27.84L118.54 29.22L116.94 29.3ZM113.95 24.81L113.87 23.42L118.2 23.18L118.28 24.57L113.95 24.81ZM122.93 28.97C122.25 29 121.64 28.91 121.11 28.67C120.59 28.43 120.18 28.09 119.87 27.65C119.57 27.21 119.4 26.7 119.37 26.14C119.34 25.51 119.44 24.94 119.67 24.45C119.91 23.96 120.24 23.58 120.68 23.29C121.11 23 121.62 22.85 122.18 22.82C122.86 22.79 123.41 22.9 123.85 23.16C124.29 23.42 124.62 23.79 124.85 24.26C125.07 24.72 125.2 25.24 125.23 25.82V26.11C125.23 26.21 125.23 26.3 125.2 26.35L121.13 26.57C121.21 26.81 121.32 27.01 121.48 27.17C121.65 27.33 121.84 27.44 122.08 27.52C122.32 27.59 122.59 27.61 122.87 27.6L124.55 27.51L124.63 28.9L122.93 28.99V28.97ZM121.05 25.48L123.57 25.34C123.54 25.19 123.51 25.05 123.47 24.93C123.43 24.79 123.36 24.69 123.28 24.58C123.2 24.48 123.12 24.4 123.02 24.34C122.92 24.27 122.81 24.22 122.68 24.2C122.55 24.17 122.41 24.16 122.27 24.17C122.08 24.17 121.9 24.23 121.75 24.31C121.61 24.39 121.48 24.49 121.39 24.61C121.3 24.74 121.22 24.87 121.16 25.02C121.11 25.17 121.08 25.33 121.07 25.48H121.05ZM129.46 28.75C128.95 28.78 128.5 28.72 128.09 28.59C127.68 28.45 127.35 28.24 127.06 27.96C126.77 27.67 126.55 27.34 126.39 26.95C126.23 26.55 126.13 26.12 126.1 25.65C126.07 25.05 126.16 24.53 126.37 24.06C126.59 23.59 126.91 23.22 127.32 22.93C127.75 22.64 128.25 22.49 128.83 22.46C129.08 22.44 129.32 22.46 129.56 22.53C129.8 22.59 130.02 22.68 130.21 22.8C130.4 22.93 130.56 23.07 130.7 23.25L130.52 19.9L132.13 19.82L132.43 25.31C132.46 25.97 132.37 26.56 132.13 27.07C131.89 27.57 131.56 27.97 131.09 28.26C130.63 28.56 130.08 28.72 129.43 28.75H129.46ZM129.38 27.37C129.7 27.35 129.97 27.26 130.19 27.09C130.41 26.92 130.57 26.7 130.67 26.42C130.78 26.15 130.83 25.85 130.81 25.52C130.79 25.19 130.71 24.89 130.57 24.63C130.43 24.37 130.25 24.17 130.01 24.02C129.77 23.88 129.5 23.81 129.17 23.83C128.86 23.85 128.59 23.94 128.36 24.11C128.14 24.28 127.97 24.5 127.86 24.78C127.76 25.05 127.72 25.35 127.73 25.68C127.75 26.01 127.82 26.31 127.96 26.57C128.1 26.83 128.29 27.03 128.53 27.18C128.77 27.32 129.05 27.39 129.37 27.37H129.38ZM134.18 25.49L133.88 20.08L135.49 20L135.78 25.41L134.17 25.49H134.18ZM135.14 28.45C134.84 28.47 134.57 28.37 134.35 28.17C134.12 27.96 134 27.71 133.99 27.41C133.97 27.11 134.07 26.85 134.27 26.62C134.48 26.38 134.73 26.27 135.03 26.25C135.32 26.23 135.59 26.33 135.82 26.54C136.05 26.74 136.17 26.99 136.19 27.29C136.19 27.48 136.16 27.68 136.06 27.86C135.98 28.03 135.85 28.17 135.7 28.28C135.54 28.38 135.35 28.44 135.15 28.45H135.14Z" fill="#DBFF00"/>
<path d="M115.81 33.31C114.83 32.19 113.21 31.89 111.9 32.56C110.8 33.12 110.24 34.31 110.07 35.48C109.89 35.5 109.72 35.53 109.57 35.59C109.21 35.74 108.88 35.96 108.69 36.32C108.49 36.7 108.52 37.12 108.64 37.53C108.87 38.32 109.43 38.92 110.08 39.39C110.54 39.71 111.03 39.97 111.55 40.21C111.52 40.29 111.51 40.37 111.5 40.45L111.44 40.96C111.41 41.18 111.37 41.41 111.34 41.63C111.27 42.04 111.19 42.46 111.1 42.87C110.91 43.71 110.68 44.56 110.41 45.38C110.28 45.75 110.16 46.12 110.02 46.46C110 46.51 109.98 46.57 109.95 46.62L109.86 46.86C109.79 47.03 109.72 47.2 109.64 47.37C109.33 48.07 108.98 48.77 108.61 49.46C108.24 50.14 107.83 50.8 107.39 51.44C107.28 51.6 107.17 51.76 107.05 51.92C107 51.99 106.96 52.06 106.91 52.11L106.88 52.15L106.82 52.23C106.59 52.53 106.36 52.84 106.12 53.13C105.14 54.32 104.05 55.41 102.88 56.38L102.55 56.65C102.41 56.76 102.26 56.88 102.11 56.98C101.8 57.21 101.49 57.43 101.18 57.64C100.56 58.06 99.8902 58.46 99.1902 58.83C98.9702 58.95 98.8102 59.15 98.7302 59.4C98.6502 59.69 98.6802 60.03 98.8302 60.29C99.0202 60.64 99.3702 60.79 99.7302 60.79C99.9302 60.79 100.13 60.74 100.3 60.65C101.88 59.81 103.41 58.74 104.85 57.48C107.23 55.4 109.28 52.77 110.78 49.89C112.3 46.96 113.26 43.79 113.62 40.47C113.62 40.36 113.62 40.26 113.59 40.16C114.78 39.76 115.84 38.83 116.34 37.72C116.98 36.29 116.85 34.53 115.8 33.34H115.82L115.81 33.31Z" fill="#DBFF00"/>
</g>
<defs>
<radialGradient id="paint0_radial_727_207" cx="0" cy="0" r="1" gradientUnits="userSpaceOnUse" gradientTransform="translate(55.12 50.69) rotate(90) scale(45.62)">
<stop offset="0.666667" stop-color="#DBFF00" stop-opacity="0"/>
<stop offset="1" stop-color="#D0F200"/>
</radialGradient>
<clipPath id="clip0_727_207">
<rect width="143.82" height="121.26" fill="white"/>
</clipPath>
</defs>
</svg>
