<svg width="28" height="28" viewBox="0 0 28 28" fill="none" xmlns="http://www.w3.org/2000/svg">
<g clip-path="url(#clip0_672_655)">
<path d="M14 0C6.26827 0 0 6.26827 0 14C0 21.7317 6.26827 28 14 28C21.7317 28 28 21.7317 28 14C28 6.26827 21.7317 0 14 0Z" fill="#DBFF00"/>
<path d="M14 0C6.26827 0 0 6.26827 0 14C0 21.7317 6.26827 28 14 28C21.7317 28 28 21.7317 28 14C28 6.26827 21.7317 0 14 0Z" fill="url(#paint0_radial_672_655)"/>
<path d="M3.16841 12.2854C2.91548 11.157 2.92108 10.6866 2.93135 9.74861C2.97708 9.25487 3.29068 8.73408 3.54361 8.57541C3.83015 8.41488 3.82641 8.71541 3.81988 9.13168C5.27401 6.23368 7.81455 4.21301 10.7891 3.58768C11.5348 3.44488 12.3076 3.40474 13.0851 3.47101C15.5285 3.67728 18.0243 4.90274 19.5997 6.66954C19.9936 7.11194 20.4407 7.61314 20.1877 7.97901C19.8387 8.48301 19.1377 8.19648 18.8269 7.78488C16.9901 5.35168 13.9111 4.05808 10.9823 4.48834C10.0779 4.62181 8.68908 5.01941 7.21068 6.16181C6.26148 6.89541 5.63988 7.91368 4.91561 8.84328C4.90815 8.85448 4.79521 9.01034 4.60575 9.35101C4.62441 9.33514 4.64308 9.31928 4.66081 9.30434L4.79428 9.19794C4.83815 9.16434 4.95575 9.07568 5.09948 9.06261C5.52601 9.02341 5.64361 9.65434 5.31321 10.205C5.28148 10.2573 5.19375 10.3917 5.05655 10.5027C4.11201 11.2653 3.71628 11.6927 3.16841 12.2845V12.2854ZM13.8065 12.7343C12.5185 11.7646 12.8368 9.64128 14.7268 9.33888C15.8141 9.21941 16.8072 9.98194 16.9397 11.0403C17.1497 12.7129 15.1879 13.7741 13.8065 12.7353V12.7343ZM6.95961 14.3826C5.69028 13.6882 5.78081 11.3194 7.45241 10.737C8.30455 10.4925 9.12681 11.0245 9.36575 11.9755C9.76988 13.5883 8.26348 15.0957 6.95961 14.3826ZM21.4235 16.8419C21.3171 16.9931 20.4733 17.7417 20.2624 16.3557H20.2615C19.5867 17.4001 15.9532 22.5325 10.4531 21.4125C6.44908 20.5967 3.29628 17.3917 4.48721 16.5871C4.56468 16.5489 4.84188 16.4574 5.14708 16.8671C7.32175 19.781 10.6537 20.3541 12.2805 20.2337C16.39 19.9294 18.8428 15.8853 18.9455 15.7126C18.9567 15.693 18.9669 15.6762 18.9772 15.6603C19.0005 15.6202 19.0332 15.5661 19.064 15.5157H19.0621L18.756 15.6267C18.5516 15.6967 18.3556 15.6865 18.1745 15.5969C17.6873 15.357 17.5417 14.629 18.0532 14.1847C18.1148 14.1306 18.2184 14.041 21.0361 13.1114C21.4029 14.4442 21.4711 15.0201 21.6083 16.1671C21.612 16.2633 21.6251 16.5545 21.4225 16.8419H21.4235Z" fill="#2D00F7"/>
</g>
<defs>
<radialGradient id="paint0_radial_672_655" cx="0" cy="0" r="1" gradientUnits="userSpaceOnUse" gradientTransform="translate(14 14) rotate(90) scale(14)">
<stop offset="0.666667" stop-color="#DBFF00" stop-opacity="0"/>
<stop offset="1" stop-color="#D0F200"/>
</radialGradient>
<clipPath id="clip0_672_655">
<rect width="28" height="28" fill="white"/>
</clipPath>
</defs>
</svg>
