<svg width="64" height="64" viewBox="0 0 64 64" fill="none" xmlns="http://www.w3.org/2000/svg">
<path d="M32 0C14.3275 0 0 14.3275 0 32C0 49.6725 14.3275 64 32 64C49.6725 64 64 49.6725 64 32C64 14.3275 49.6725 0 32 0Z" fill="#DBFF00"/>
<path d="M32 0C14.3275 0 0 14.3275 0 32C0 49.6725 14.3275 64 32 64C49.6725 64 64 49.6725 64 32C64 14.3275 49.6725 0 32 0Z" fill="url(#paint0_radial_111_129)"/>
<path fill-rule="evenodd" clip-rule="evenodd" d="M43.7499 26.84H35.8699C35.2299 26.84 34.6399 26.43 34.4199 25.83C34.1999 25.23 34.3699 24.54 34.8599 24.12L40.3499 19.37C40.9899 18.81 41.9699 18.88 42.5299 19.53C43.0899 20.17 43.0199 21.15 42.3699 21.71L40.0199 23.74H43.7499C44.6099 23.74 45.2999 24.43 45.2999 25.29C45.2999 26.15 44.5999 26.84 43.7499 26.84ZM19.76 26.84H27.64C28.28 26.84 28.86 26.44 29.09 25.83C29.31 25.23 29.14 24.54 28.65 24.12L23.16 19.38C22.85 19.11 22.45 18.97 22.04 19C21.63 19.03 21.25 19.22 20.98 19.53C20.42 20.17 20.49 21.15 21.14 21.71L23.49 23.74H19.76C18.91 23.74 18.21 24.43 18.21 25.29C18.21 26.15 18.9 26.84 19.76 26.84ZM50.165 25.89C49.3172 25.8927 48.62 26.5817 48.62 27.44C48.62 36.68 41.1 44.2 31.86 44.2C22.62 44.2 15.09 36.68 15.09 27.44C15.09 26.59 14.4 25.89 13.54 25.89C12.68 25.89 11.99 26.58 11.99 27.44C11.99 38.39 20.9 47.3 31.85 47.3C42.8 47.3 51.71 38.39 51.71 27.44C51.71 26.5917 51.0227 25.8927 50.165 25.89ZM50.165 25.89L50.16 25.89H50.17L50.165 25.89Z" fill="#2D00F7"/>
<defs>
<radialGradient id="paint0_radial_111_129" cx="0" cy="0" r="1" gradientUnits="userSpaceOnUse" gradientTransform="translate(32 32) rotate(90) scale(32)">
<stop offset="0.666667" stop-color="#DBFF00" stop-opacity="0"/>
<stop offset="1" stop-color="#D0F200"/>
</radialGradient>
</defs>
</svg>
